<?xml version="1.0" encoding="UTF-8" ?>
<!DOCTYPE svg PUBLIC "-//W3C//DTD SVG 1.1//EN" "http://www.w3.org/Graphics/SVG/1.1/DTD/svg11.dtd">
<svg width="1024pt" height="576pt" viewBox="0 0 1024 576" version="1.1" xmlns="http://www.w3.org/2000/svg">
<g id="#242425ff">
</g>
<g id="#4c435bff">
<path fill="#4c435b" opacity="1.00" d=" M 243.98 80.75 C 280.53 80.70 317.07 80.73 353.61 80.73 C 353.60 84.84 353.60 88.95 353.61 93.06 C 353.60 101.07 353.60 109.09 353.61 117.11 C 353.61 149.71 353.59 182.31 353.56 214.92 C 349.43 214.92 345.31 214.92 341.19 214.91 C 341.18 206.74 341.19 198.56 341.18 190.39 C 341.18 182.29 341.19 174.20 341.18 166.11 C 341.17 162.04 341.17 157.96 341.18 153.89 C 341.19 149.83 341.20 145.76 341.19 141.70 C 341.19 133.52 341.21 125.35 341.16 117.17 C 341.13 109.15 341.34 101.13 340.99 93.11 C 320.75 92.92 300.50 93.11 280.26 93.04 C 268.16 93.04 256.07 93.05 243.97 93.04 C 243.92 88.94 243.93 84.84 243.98 80.75 Z" />
<path fill="#4c435b" opacity="1.00" d=" M 670.38 80.73 C 706.93 80.73 743.48 80.70 780.02 80.75 C 780.07 84.85 780.07 88.94 780.04 93.04 C 767.93 93.05 755.83 93.05 743.72 93.04 C 723.48 93.12 703.23 92.91 682.99 93.10 C 682.66 101.12 682.86 109.15 682.84 117.18 C 682.79 125.35 682.81 133.52 682.81 141.70 C 682.80 145.76 682.81 149.83 682.82 153.90 C 682.83 157.97 682.82 162.04 682.82 166.11 C 682.80 174.21 682.81 182.30 682.81 190.40 C 682.81 198.57 682.81 206.74 682.81 214.92 C 678.66 214.91 674.51 214.91 670.36 214.91 C 670.43 206.69 670.39 198.48 670.39 190.26 C 670.39 182.20 670.40 174.15 670.39 166.09 C 670.40 157.99 670.40 149.89 670.39 141.79 C 670.40 125.54 670.39 109.29 670.40 93.05 C 670.39 88.94 670.39 84.84 670.38 80.73 Z" />
<path fill="#4c435b" opacity="1.00" d=" M 170.85 117.21 C 174.88 117.19 178.92 117.17 182.95 117.19 C 211.31 117.20 239.68 117.20 268.04 117.19 C 268.06 125.36 268.05 133.53 268.04 141.69 C 264.03 141.70 260.01 141.70 256.00 141.70 C 252.00 141.69 248.00 141.72 244.01 141.75 C 243.89 149.87 243.96 158.00 243.96 166.12 C 239.84 166.10 235.72 166.11 231.61 166.10 C 231.52 157.96 231.71 149.83 231.45 141.69 C 223.37 141.67 215.29 141.71 207.21 141.70 C 203.13 141.68 199.06 141.72 194.98 141.75 C 194.86 149.87 194.93 157.99 194.93 166.11 C 190.95 166.10 186.98 166.11 183.00 166.11 C 178.95 166.13 174.89 166.11 170.84 166.09 C 170.81 149.80 170.79 133.50 170.85 117.21 Z" />
<path fill="#4c435b" opacity="1.00" d=" M 402.18 117.14 C 406.24 117.16 410.29 117.19 414.35 117.19 C 414.41 125.36 414.42 133.52 414.34 141.69 C 410.47 141.69 406.60 141.71 402.73 141.74 L 402.07 141.74 C 402.27 133.54 402.19 125.34 402.18 117.14 Z" />
<path fill="#4c435b" opacity="1.00" d=" M 609.61 117.20 C 613.64 117.19 617.67 117.16 621.70 117.14 C 621.75 125.32 621.67 133.51 621.74 141.70 C 617.62 141.71 613.50 141.68 609.38 141.63 L 609.39 141.19 C 609.61 133.19 609.46 125.19 609.61 117.20 Z" />
<path fill="#4c435b" opacity="1.00" d=" M 755.96 117.19 C 784.32 117.21 812.67 117.20 841.03 117.19 C 845.07 117.17 849.12 117.19 853.16 117.21 C 853.19 133.50 853.20 149.80 853.16 166.09 C 849.09 166.11 845.02 166.13 840.96 166.11 C 836.98 166.11 833.01 166.10 829.04 166.11 C 829.04 157.99 829.11 149.87 829.00 141.75 C 824.90 141.72 820.82 141.68 816.73 141.70 C 808.61 141.72 800.49 141.61 792.37 141.79 C 792.31 149.89 792.38 157.99 792.32 166.10 C 788.23 166.11 784.14 166.11 780.05 166.12 C 780.03 158.00 780.11 149.87 779.99 141.75 C 775.99 141.72 771.99 141.69 768.00 141.70 C 763.98 141.70 759.97 141.70 755.96 141.69 C 755.94 133.53 755.94 125.36 755.96 117.19 Z" />
<path fill="#4c435b" opacity="1.00" d=" M 304.74 288.00 C 312.85 288.02 320.95 288.00 329.06 287.99 C 333.09 287.99 337.13 288.00 341.18 288.00 C 341.19 292.01 341.18 296.03 341.18 300.05 C 333.14 300.06 325.11 300.01 317.07 300.08 C 317.01 312.29 317.07 324.51 317.05 336.73 C 312.95 336.72 308.85 336.72 304.75 336.72 C 304.70 328.60 304.72 320.47 304.72 312.34 C 304.73 304.23 304.71 296.12 304.74 288.00 Z" />
<path fill="#4c435b" opacity="1.00" d=" M 377.86 288.00 C 385.95 288.00 394.04 288.00 402.13 288.00 C 406.13 288.00 410.13 288.00 414.13 288.01 C 413.99 292.03 414.13 296.06 414.40 300.08 C 406.31 300.04 398.23 300.01 390.15 300.08 C 390.14 304.21 390.08 308.34 390.08 312.47 C 386.03 312.46 381.99 312.46 377.95 312.47 C 377.90 308.32 377.85 304.17 377.85 300.03 C 377.84 296.02 377.85 292.01 377.86 288.00 Z" />
<path fill="#4c435b" opacity="1.00" d=" M 609.55 288.02 C 613.59 288.00 617.65 287.98 621.70 287.99 C 629.83 288.00 637.96 288.00 646.10 288.00 C 646.11 292.01 646.12 296.02 646.11 300.04 C 646.10 304.14 646.07 308.25 646.05 312.36 C 641.99 312.38 637.93 312.35 633.88 312.31 C 633.87 308.24 633.80 304.16 633.81 300.08 C 625.71 300.00 617.60 300.07 609.50 300.04 C 609.48 296.03 609.51 292.03 609.55 288.02 Z" />
<path fill="#4c435b" opacity="1.00" d=" M 682.83 288.00 C 686.86 288.00 690.88 288.00 694.92 288.00 C 703.01 288.00 711.10 288.00 719.20 288.01 C 719.23 296.12 719.22 304.23 719.22 312.35 C 719.22 320.47 719.24 328.60 719.20 336.72 C 715.11 336.72 711.03 336.72 706.95 336.72 C 706.93 328.57 706.93 320.41 706.94 312.25 C 706.94 308.19 706.92 304.13 706.90 300.07 C 698.87 300.01 690.84 300.06 682.81 300.05 C 682.81 296.03 682.81 292.01 682.83 288.00 Z" />
<path fill="#4c435b" opacity="1.00" d=" M 182.98 312.35 C 186.99 312.35 191.00 312.34 195.01 312.35 C 211.32 312.35 227.63 312.35 243.94 312.34 C 243.97 320.47 243.93 328.60 243.96 336.73 C 227.65 336.73 211.34 336.72 195.03 336.72 C 191.01 336.73 186.99 336.72 182.98 336.72 C 182.87 328.60 182.86 320.47 182.98 312.35 Z" />
<path fill="#4c435b" opacity="1.00" d=" M 414.40 312.34 C 418.53 312.35 422.67 312.32 426.81 312.23 L 426.81 312.50 C 426.73 320.41 426.94 328.31 426.80 336.21 L 426.77 336.66 C 422.63 336.68 418.50 336.76 414.37 336.84 L 414.37 336.23 C 414.42 328.27 414.39 320.30 414.40 312.34 Z" />
<path fill="#4c435b" opacity="1.00" d=" M 597.21 312.35 C 601.31 312.35 605.41 312.34 609.52 312.32 C 609.51 320.45 609.49 328.59 609.54 336.73 C 605.41 336.73 601.29 336.72 597.18 336.73 C 597.22 328.60 597.17 320.47 597.21 312.35 Z" />
<path fill="#4c435b" opacity="1.00" d=" M 779.99 312.43 C 796.31 312.24 812.64 312.40 828.96 312.35 C 832.97 312.34 836.99 312.35 841.01 312.35 C 841.15 320.47 841.11 328.59 841.04 336.71 C 837.02 336.72 833.00 336.73 828.99 336.73 C 812.67 336.72 796.36 336.73 780.04 336.73 C 780.07 328.79 780.07 320.86 779.99 312.93 L 779.99 312.43 Z" />
<path fill="#4c435b" opacity="1.00" d=" M 329.08 336.73 C 341.32 336.73 353.56 336.73 365.80 336.72 C 373.88 336.71 381.96 336.69 390.04 336.82 C 390.07 340.89 390.09 344.97 390.11 349.04 C 373.81 349.08 357.51 348.99 341.21 349.08 C 341.17 357.10 341.16 365.11 341.22 373.13 C 357.52 373.28 373.81 373.17 390.10 373.18 C 390.09 377.30 390.09 381.42 390.10 385.55 C 373.80 385.68 357.49 385.23 341.20 385.78 C 341.14 393.80 341.22 401.82 341.16 409.85 C 337.14 409.85 333.13 409.84 329.11 409.83 C 329.07 401.88 329.12 393.92 329.05 385.97 L 329.05 385.17 C 329.07 373.12 329.07 361.08 329.08 349.04 C 329.08 344.93 329.08 340.83 329.08 336.73 Z" />
<path fill="#4c435b" opacity="1.00" d=" M 633.92 336.73 C 641.99 336.73 650.07 336.73 658.14 336.73 C 670.40 336.72 682.66 336.72 694.92 336.73 C 694.91 340.83 694.92 344.93 694.93 349.04 C 694.94 361.08 694.94 373.13 694.95 385.17 L 694.95 385.96 C 694.87 393.92 694.93 401.88 694.89 409.83 C 690.87 409.84 686.85 409.85 682.83 409.85 C 682.78 401.79 682.87 393.74 682.77 385.68 C 666.49 385.42 650.20 385.47 633.93 385.67 L 633.92 385.14 C 633.86 381.15 633.83 377.17 633.85 373.18 C 650.15 373.17 666.47 373.27 682.78 373.13 C 682.84 365.11 682.82 357.10 682.79 349.08 C 666.48 348.99 650.17 349.08 633.85 349.05 C 633.86 344.94 633.89 340.83 633.92 336.73 Z" />
<path fill="#4c435b" opacity="1.00" d=" M 304.85 434.23 C 308.91 434.20 312.98 434.17 317.05 434.19 C 317.04 450.43 317.08 466.68 317.03 482.92 C 312.93 482.94 308.84 482.93 304.75 482.92 C 304.81 466.69 304.60 450.46 304.85 434.23 Z" />
<path fill="#4c435b" opacity="1.00" d=" M 706.93 434.19 C 710.99 434.17 715.04 434.21 719.11 434.23 C 719.35 450.46 719.15 466.69 719.20 482.92 C 715.12 482.93 711.04 482.94 706.96 482.92 C 706.92 474.90 706.94 466.88 706.92 458.86 C 706.92 450.64 706.92 442.42 706.93 434.19 Z" />
</g>
<g id="#756874ff">
<path fill="#756874" opacity="1.00" d=" M 353.61 80.73 C 369.80 80.72 385.99 80.72 402.19 80.74 C 402.20 84.85 402.20 88.96 402.19 93.06 C 385.99 93.02 369.80 93.03 353.61 93.06 C 353.60 88.95 353.60 84.84 353.61 80.73 Z" />
<path fill="#756874" opacity="1.00" d=" M 621.71 80.74 C 637.93 80.72 654.16 80.72 670.38 80.73 C 670.39 84.84 670.39 88.94 670.40 93.05 C 662.32 93.07 654.25 92.90 646.18 93.11 C 646.07 109.30 646.00 125.49 646.22 141.68 C 654.27 141.84 662.33 141.68 670.39 141.79 C 670.40 149.89 670.40 157.99 670.39 166.09 C 662.33 166.14 654.27 166.01 646.22 166.17 C 646.01 174.18 646.02 182.21 646.18 190.22 C 654.24 190.53 662.32 190.40 670.39 190.26 C 670.39 198.48 670.43 206.69 670.36 214.91 C 662.26 214.91 654.16 214.92 646.07 214.91 C 646.11 206.82 646.23 198.74 646.00 190.65 C 637.90 190.31 629.80 190.33 621.71 190.77 L 621.71 190.36 C 621.69 182.28 621.71 174.20 621.69 166.12 C 621.68 157.98 621.96 149.84 621.74 141.70 C 621.67 133.51 621.75 125.32 621.70 117.14 C 621.69 109.14 621.70 101.13 621.69 93.13 C 621.69 89.00 621.69 84.87 621.71 80.74 Z" />
<path fill="#756874" opacity="1.00" d=" M 268.04 117.19 C 272.10 117.18 276.17 117.18 280.24 117.19 C 292.50 117.20 304.76 117.19 317.02 117.19 C 317.06 125.36 317.06 133.52 317.02 141.69 C 300.69 141.70 284.37 141.68 268.04 141.69 C 268.05 133.53 268.06 125.36 268.04 117.19 Z" />
<path fill="#756874" opacity="1.00" d=" M 353.61 117.11 C 369.80 117.24 385.99 117.17 402.18 117.14 C 402.19 125.34 402.27 133.54 402.07 141.74 C 401.87 149.87 402.28 157.99 402.22 166.12 C 394.16 166.13 386.10 166.01 378.04 166.17 C 377.64 182.41 377.94 198.67 377.91 214.91 C 369.79 214.91 361.67 214.91 353.56 214.92 C 353.59 182.31 353.61 149.71 353.61 117.11 Z" />
<path fill="#756874" opacity="1.00" d=" M 414.35 117.19 C 426.55 117.19 438.75 117.19 450.95 117.19 C 450.92 125.36 450.91 133.52 450.96 141.69 C 438.75 141.69 426.55 141.69 414.34 141.69 C 414.42 133.52 414.41 125.36 414.35 117.19 Z" />
<path fill="#756874" opacity="1.00" d=" M 548.55 117.19 C 552.63 117.19 556.71 117.18 560.79 117.19 C 568.88 117.20 576.96 117.19 585.05 117.19 C 585.10 125.15 584.97 133.11 585.15 141.08 C 593.22 141.37 601.31 141.25 609.39 141.19 L 609.38 141.63 C 593.21 141.42 577.03 141.79 560.86 141.70 C 556.74 141.71 552.64 141.70 548.53 141.68 C 548.55 133.51 548.52 125.35 548.55 117.19 Z" />
<path fill="#756874" opacity="1.00" d=" M 706.94 117.19 C 719.19 117.19 731.45 117.20 743.70 117.19 C 747.78 117.18 751.87 117.18 755.96 117.19 C 755.94 125.36 755.94 133.53 755.96 141.69 C 739.62 141.68 723.29 141.70 706.95 141.69 C 706.93 133.52 706.93 125.36 706.94 117.19 Z" />
<path fill="#756874" opacity="1.00" d=" M 194.98 141.75 C 199.06 141.72 203.13 141.68 207.21 141.70 C 207.22 149.83 207.22 157.97 207.21 166.11 C 203.12 166.11 199.02 166.11 194.93 166.11 C 194.93 157.99 194.86 149.87 194.98 141.75 Z" />
<path fill="#756874" opacity="1.00" d=" M 244.01 141.75 C 248.00 141.72 252.00 141.69 256.00 141.70 C 256.00 149.82 256.00 157.95 256.00 166.08 C 251.98 166.10 247.97 166.12 243.96 166.12 C 243.96 158.00 243.89 149.87 244.01 141.75 Z" />
<path fill="#756874" opacity="1.00" d=" M 768.00 141.70 C 771.99 141.69 775.99 141.72 779.99 141.75 C 780.11 149.87 780.03 158.00 780.05 166.12 C 776.03 166.12 772.01 166.11 768.00 166.07 C 768.00 157.95 768.00 149.82 768.00 141.70 Z" />
<path fill="#756874" opacity="1.00" d=" M 816.73 141.70 C 820.82 141.68 824.90 141.72 829.00 141.75 C 829.11 149.87 829.04 157.99 829.04 166.11 C 824.94 166.11 820.83 166.12 816.73 166.11 C 816.72 157.97 816.72 149.83 816.73 141.70 Z" />
<path fill="#756874" opacity="1.00" d=" M 317.07 300.08 C 325.11 300.01 333.14 300.06 341.18 300.05 C 341.17 304.14 341.19 308.23 341.20 312.32 C 353.45 312.31 365.70 312.47 377.95 312.47 C 381.99 312.46 386.03 312.46 390.08 312.47 C 390.08 308.34 390.14 304.21 390.15 300.08 C 398.23 300.01 406.31 300.04 414.40 300.08 C 414.35 304.17 414.41 308.25 414.40 312.34 C 414.39 320.30 414.42 328.27 414.37 336.23 C 406.30 336.53 398.22 336.67 390.16 336.24 C 390.02 328.41 390.24 320.58 389.97 312.76 C 381.93 312.48 373.88 312.61 365.84 312.87 C 365.59 320.82 365.69 328.77 365.80 336.72 C 353.56 336.73 341.32 336.73 329.08 336.73 C 325.06 336.73 321.06 336.72 317.05 336.73 C 317.07 324.51 317.01 312.29 317.07 300.08 Z" />
<path fill="#756874" opacity="1.00" d=" M 609.50 300.04 C 617.60 300.07 625.71 300.00 633.81 300.08 C 633.80 304.16 633.87 308.24 633.88 312.31 C 637.93 312.35 641.99 312.38 646.05 312.36 C 650.07 312.35 654.09 312.35 658.12 312.35 C 658.22 320.48 658.22 328.60 658.14 336.73 C 650.07 336.73 641.99 336.73 633.92 336.73 C 625.79 336.73 617.66 336.72 609.54 336.73 C 609.49 328.59 609.51 320.45 609.52 312.32 C 609.52 308.22 609.51 304.13 609.50 300.04 Z" />
<path fill="#756874" opacity="1.00" d=" M 682.81 300.05 C 690.84 300.06 698.87 300.01 706.90 300.07 C 706.92 304.13 706.94 308.19 706.94 312.25 C 698.90 312.39 690.86 312.33 682.83 312.34 C 682.82 308.24 682.81 304.14 682.81 300.05 Z" />
<path fill="#756874" opacity="1.00" d=" M 243.94 312.34 C 260.21 312.36 276.49 312.34 292.77 312.36 C 296.75 312.35 300.73 312.35 304.72 312.34 C 304.72 320.47 304.70 328.60 304.75 336.72 C 300.80 336.72 296.85 336.73 292.91 336.73 C 276.59 336.72 260.27 336.73 243.96 336.73 C 243.93 328.60 243.97 320.47 243.94 312.34 Z" />
<path fill="#756874" opacity="1.00" d=" M 548.51 312.41 C 552.61 312.35 556.70 312.34 560.80 312.35 C 572.94 312.36 585.07 312.35 597.21 312.35 C 597.17 320.47 597.22 328.60 597.18 336.73 C 585.09 336.73 573.00 336.73 560.91 336.73 C 556.78 336.73 552.66 336.73 548.53 336.73 C 548.53 328.62 548.56 320.52 548.51 312.41 Z" />
<path fill="#756874" opacity="1.00" d=" M 719.22 312.35 C 723.22 312.35 727.22 312.35 731.23 312.36 C 747.48 312.23 763.73 312.64 779.99 312.43 L 779.99 312.93 C 772.01 312.67 764.02 312.53 756.04 312.93 C 755.80 320.86 755.92 328.79 756.00 336.73 C 747.72 336.72 739.45 336.73 731.18 336.73 C 727.18 336.73 723.19 336.72 719.20 336.72 C 719.24 328.60 719.22 320.47 719.22 312.35 Z" />
<path fill="#756874" opacity="1.00" d=" M 450.95 312.35 C 459.08 312.34 467.20 312.50 475.33 312.38 C 475.36 320.47 475.32 328.57 475.36 336.67 C 471.24 336.73 467.12 336.74 463.00 336.74 C 450.92 336.69 438.85 336.57 426.77 336.66 L 426.80 336.21 C 434.82 336.16 442.84 336.60 450.86 336.07 C 451.04 328.16 450.92 320.26 450.95 312.35 Z" />
<path fill="#756874" opacity="1.00" d=" M 341.21 349.08 C 357.51 348.99 373.81 349.08 390.11 349.04 C 390.12 357.09 390.12 365.13 390.10 373.18 C 373.81 373.17 357.52 373.28 341.22 373.13 C 341.16 365.11 341.17 357.10 341.21 349.08 Z" />
<path fill="#756874" opacity="1.00" d=" M 633.85 349.05 C 650.17 349.08 666.48 348.99 682.79 349.08 C 682.82 357.10 682.84 365.11 682.78 373.13 C 666.47 373.27 650.15 373.17 633.85 373.18 C 633.85 365.13 633.83 357.09 633.85 349.05 Z" />
<path fill="#756874" opacity="1.00" d=" M 280.33 434.20 C 284.40 434.21 288.48 434.20 292.56 434.20 C 292.50 442.41 292.51 450.61 292.56 458.82 C 288.48 458.81 284.40 458.80 280.32 458.81 C 280.37 450.61 280.37 442.41 280.33 434.20 Z" />
<path fill="#756874" opacity="1.00" d=" M 317.05 434.19 C 325.09 434.22 333.13 434.18 341.17 434.22 C 341.21 450.45 341.17 466.69 341.19 482.93 C 333.13 482.92 325.08 482.94 317.03 482.92 C 317.08 466.68 317.04 450.43 317.05 434.19 Z" />
<path fill="#756874" opacity="1.00" d=" M 682.83 434.22 C 690.86 434.18 698.90 434.22 706.93 434.19 C 706.92 442.42 706.92 450.64 706.92 458.86 C 698.89 458.80 690.85 458.81 682.81 458.87 C 682.82 450.65 682.79 442.43 682.83 434.22 Z" />
<path fill="#756874" opacity="1.00" d=" M 731.35 434.20 C 735.43 434.20 739.52 434.21 743.61 434.20 C 743.56 442.41 743.56 450.61 743.61 458.81 C 739.52 458.81 735.43 458.81 731.34 458.82 C 731.37 450.61 731.37 442.41 731.35 434.20 Z" />
</g>
<g id="#431b2dff">
<path fill="#431b2d" opacity="1.00" d=" M 183.00 93.10 C 203.33 92.96 223.65 93.11 243.97 93.04 C 256.07 93.05 268.16 93.04 280.26 93.04 C 280.35 101.09 280.37 109.14 280.24 117.19 C 276.17 117.18 272.10 117.18 268.04 117.19 C 239.68 117.20 211.31 117.20 182.95 117.19 C 182.88 109.16 182.81 101.13 183.00 93.10 Z" />
<path fill="#431b2d" opacity="1.00" d=" M 743.72 93.04 C 755.83 93.05 767.93 93.05 780.04 93.04 C 800.36 93.11 820.68 92.96 841.01 93.11 C 841.17 101.14 841.14 109.16 841.03 117.19 C 812.67 117.20 784.32 117.21 755.96 117.19 C 751.87 117.18 747.78 117.18 743.70 117.19 C 743.54 109.14 743.54 101.08 743.72 93.04 Z" />
<path fill="#431b2d" opacity="1.00" d=" M 207.21 141.70 C 215.29 141.71 223.37 141.67 231.45 141.69 C 231.71 149.83 231.52 157.96 231.61 166.10 C 223.48 166.07 215.35 166.08 207.21 166.11 C 207.22 157.97 207.22 149.83 207.21 141.70 Z" />
<path fill="#431b2d" opacity="1.00" d=" M 256.00 141.70 C 260.01 141.70 264.03 141.70 268.04 141.69 C 284.37 141.68 300.69 141.70 317.02 141.69 C 325.08 141.68 333.13 141.67 341.19 141.70 C 341.20 145.76 341.19 149.83 341.18 153.89 C 320.90 153.94 300.62 153.59 280.35 154.06 C 280.29 198.67 280.30 243.28 280.34 287.89 C 288.47 288.12 296.61 287.97 304.74 288.00 C 304.71 296.12 304.73 304.23 304.72 312.34 C 300.73 312.35 296.75 312.35 292.77 312.36 C 292.57 308.25 292.60 304.14 292.23 300.05 C 276.18 300.01 260.12 300.01 244.07 300.09 C 243.99 304.17 243.92 308.26 243.94 312.34 C 227.63 312.35 211.32 312.35 195.01 312.35 C 194.84 304.23 194.95 296.12 194.93 288.00 C 219.30 287.99 243.67 288.03 268.04 287.98 C 268.08 263.63 268.05 239.27 268.05 214.92 C 267.92 198.66 268.25 182.40 267.86 166.15 C 263.91 166.09 259.95 166.04 256.00 166.08 C 256.00 157.95 256.00 149.82 256.00 141.70 Z" />
<path fill="#431b2d" opacity="1.00" d=" M 402.73 141.74 C 406.60 141.71 410.47 141.69 414.34 141.69 C 426.55 141.69 438.75 141.69 450.96 141.69 C 455.01 141.67 459.06 141.67 463.11 141.70 C 463.24 145.75 463.27 149.81 463.19 153.86 C 443.04 153.78 422.89 153.96 402.75 153.78 C 402.69 149.77 402.67 145.75 402.73 141.74 Z" />
<path fill="#431b2d" opacity="1.00" d=" M 560.86 141.70 C 577.03 141.79 593.21 141.42 609.38 141.63 C 613.50 141.68 617.62 141.71 621.74 141.70 C 621.51 145.73 621.25 149.76 620.98 153.78 C 600.91 153.97 580.84 153.77 560.77 153.87 C 560.69 149.81 560.72 145.75 560.86 141.70 Z" />
<path fill="#431b2d" opacity="1.00" d=" M 682.81 141.70 C 690.85 141.67 698.90 141.68 706.95 141.69 C 723.29 141.70 739.62 141.68 755.96 141.69 C 759.97 141.70 763.98 141.70 768.00 141.70 C 768.00 149.82 768.00 157.95 768.00 166.07 C 764.04 166.03 760.08 166.08 756.12 166.13 C 755.89 182.13 755.87 198.14 756.10 214.14 C 760.06 214.28 764.03 214.33 768.00 214.31 L 768.00 214.98 C 763.98 214.96 759.96 214.98 755.95 214.99 C 755.94 239.33 755.94 263.66 755.95 287.99 C 763.98 288.00 772.02 288.00 780.06 288.00 C 796.39 288.00 812.72 288.00 829.05 288.00 C 829.01 296.12 829.11 304.23 828.96 312.35 C 812.64 312.40 796.31 312.24 779.99 312.43 C 780.05 308.33 780.04 304.22 779.98 300.12 C 763.78 300.02 747.56 299.91 731.36 300.18 C 731.33 304.24 731.25 308.29 731.23 312.36 C 727.22 312.35 723.22 312.35 719.22 312.35 C 719.22 304.23 719.23 296.12 719.20 288.01 C 727.33 287.98 735.46 288.13 743.59 287.87 C 743.61 243.27 743.59 198.68 743.60 154.08 C 723.35 153.56 703.08 153.94 682.82 153.90 C 682.81 149.83 682.80 145.76 682.81 141.70 Z" />
<path fill="#431b2d" opacity="1.00" d=" M 792.37 141.79 C 800.49 141.61 808.61 141.72 816.73 141.70 C 816.72 149.83 816.72 157.97 816.73 166.11 C 808.59 166.07 800.46 166.05 792.32 166.10 C 792.38 157.99 792.31 149.89 792.37 141.79 Z" />
<path fill="#431b2d" opacity="1.00" d=" M 426.82 166.10 C 430.83 166.07 434.83 166.11 438.84 166.16 C 438.97 190.46 438.97 214.76 438.85 239.06 C 434.84 239.18 430.83 239.27 426.82 239.25 C 426.81 231.14 426.81 223.03 426.81 214.92 C 426.81 206.74 426.81 198.57 426.81 190.39 C 426.81 182.29 426.80 174.19 426.82 166.10 Z" />
<path fill="#431b2d" opacity="1.00" d=" M 585.15 166.17 C 589.16 166.11 593.17 166.06 597.18 166.09 C 597.19 174.19 597.18 182.29 597.19 190.39 C 597.19 198.57 597.18 206.75 597.19 214.92 C 597.19 223.03 597.19 231.13 597.19 239.24 C 605.36 239.33 613.53 239.19 621.70 239.22 C 621.70 255.48 621.69 271.73 621.70 287.99 C 617.65 287.98 613.59 288.00 609.55 288.02 C 609.51 292.03 609.48 296.03 609.50 300.04 C 609.51 304.13 609.52 308.22 609.52 312.32 C 605.41 312.34 601.31 312.35 597.21 312.35 C 597.21 308.27 597.14 304.20 597.05 300.13 C 584.96 299.91 572.87 300.13 560.77 300.03 C 560.72 296.02 560.71 292.01 560.78 288.00 C 576.95 287.94 593.12 288.12 609.29 287.92 C 609.57 271.96 609.58 255.99 609.29 240.04 C 601.25 239.46 593.19 239.34 585.15 239.01 C 585.02 214.73 585.00 190.45 585.15 166.17 Z" />
<path fill="#431b2d" opacity="1.00" d=" M 402.22 239.63 C 406.22 239.52 410.22 239.50 414.23 239.56 C 414.45 255.71 414.57 271.87 414.13 288.01 C 410.13 288.00 406.13 288.00 402.13 288.00 C 402.26 271.88 402.09 255.75 402.22 239.63 Z" />
<path fill="#431b2d" opacity="1.00" d=" M 341.18 288.00 C 353.40 287.98 365.63 288.02 377.86 288.00 C 377.85 292.01 377.84 296.02 377.85 300.03 C 365.63 300.05 353.40 300.03 341.18 300.05 C 341.18 296.03 341.19 292.01 341.18 288.00 Z" />
<path fill="#431b2d" opacity="1.00" d=" M 414.92 288.10 C 431.01 287.86 447.10 288.05 463.18 288.02 C 463.25 292.02 463.26 296.02 463.18 300.02 C 451.10 300.15 439.02 299.87 426.95 300.12 C 426.86 304.15 426.78 308.19 426.81 312.23 C 422.67 312.32 418.53 312.35 414.40 312.34 C 414.41 308.25 414.35 304.17 414.40 300.08 C 414.47 296.08 414.72 292.09 414.92 288.10 Z" />
<path fill="#431b2d" opacity="1.00" d=" M 646.10 288.00 C 658.34 288.00 670.58 288.00 682.83 288.00 C 682.81 292.01 682.81 296.03 682.81 300.05 C 670.58 300.05 658.34 300.04 646.11 300.04 C 646.12 296.02 646.11 292.01 646.10 288.00 Z" />
<path fill="#431b2d" opacity="1.00" d=" M 292.91 336.73 C 296.85 336.73 300.80 336.72 304.75 336.72 C 308.85 336.72 312.95 336.72 317.05 336.73 C 321.06 336.72 325.06 336.73 329.08 336.73 C 329.08 340.83 329.08 344.93 329.08 349.04 C 321.01 349.09 312.95 348.91 304.89 349.08 C 304.60 361.09 304.61 373.11 304.88 385.12 C 312.94 385.42 321.00 385.29 329.05 385.17 L 329.05 385.97 C 316.87 386.25 304.70 385.66 292.53 385.72 C 292.52 381.54 292.52 377.36 292.54 373.18 C 292.55 369.13 292.54 365.10 292.44 361.06 C 292.32 357.10 292.26 353.14 292.40 349.19 C 292.56 345.03 292.77 340.88 292.91 336.73 Z" />
<path fill="#431b2d" opacity="1.00" d=" M 694.92 336.73 C 698.93 336.73 702.93 336.72 706.95 336.72 C 711.03 336.72 715.11 336.72 719.20 336.72 C 723.19 336.72 727.18 336.73 731.18 336.73 C 731.22 340.82 731.23 344.92 731.19 349.02 C 731.14 352.95 731.18 356.87 731.24 360.80 C 735.34 360.98 739.46 361.14 743.58 361.12 C 743.58 365.13 743.58 369.15 743.58 373.16 C 743.57 377.36 743.57 381.56 743.58 385.76 C 727.37 385.26 711.16 386.33 694.95 385.96 L 694.95 385.17 C 702.98 385.29 711.01 385.41 719.04 385.12 C 719.30 373.12 719.29 361.12 719.05 349.12 C 711.01 348.94 702.97 349.07 694.93 349.04 C 694.92 344.93 694.91 340.83 694.92 336.73 Z" />
</g>
<g id="#4e3045ff">
<path fill="#4e3045" opacity="1.00" d=" M 280.26 93.04 C 300.50 93.11 320.75 92.92 340.99 93.11 C 341.34 101.13 341.13 109.15 341.16 117.17 C 333.11 117.20 325.07 117.18 317.02 117.19 C 304.76 117.19 292.50 117.20 280.24 117.19 C 280.37 109.14 280.35 101.09 280.26 93.04 Z" />
<path fill="#4e3045" opacity="1.00" d=" M 402.19 93.06 C 422.52 93.06 442.85 93.02 463.18 93.08 C 463.25 101.12 463.26 109.15 463.17 117.19 C 459.09 117.19 455.02 117.20 450.95 117.19 C 438.75 117.19 426.55 117.19 414.35 117.19 C 410.29 117.19 406.24 117.16 402.18 117.14 C 402.19 109.12 402.18 101.09 402.19 93.06 Z" />
<path fill="#4e3045" opacity="1.00" d=" M 560.78 93.08 C 581.08 93.08 601.39 92.97 621.69 93.13 C 621.70 101.13 621.69 109.14 621.70 117.14 C 617.67 117.16 613.64 117.19 609.61 117.20 C 601.42 117.19 593.24 117.18 585.05 117.19 C 576.96 117.19 568.88 117.20 560.79 117.19 C 560.68 109.15 560.70 101.11 560.78 93.08 Z" />
<path fill="#4e3045" opacity="1.00" d=" M 682.99 93.10 C 703.23 92.91 723.48 93.12 743.72 93.04 C 743.54 101.08 743.54 109.14 743.70 117.19 C 731.45 117.20 719.19 117.19 706.94 117.19 C 698.91 117.18 690.87 117.20 682.84 117.18 C 682.86 109.15 682.66 101.12 682.99 93.10 Z" />
<path fill="#4e3045" opacity="1.00" d=" M 402.07 141.74 L 402.73 141.74 C 402.67 145.75 402.69 149.77 402.75 153.78 C 422.89 153.96 443.04 153.78 463.19 153.86 C 463.24 198.58 463.24 243.30 463.18 288.02 C 447.10 288.05 431.01 287.86 414.92 288.10 C 414.72 292.09 414.47 296.08 414.40 300.08 C 414.13 296.06 413.99 292.03 414.13 288.01 C 414.57 271.87 414.45 255.71 414.23 239.56 C 410.22 239.50 406.22 239.52 402.22 239.63 L 402.22 239.18 C 410.42 239.11 418.62 239.22 426.82 239.25 C 430.83 239.27 434.84 239.18 438.85 239.06 C 438.97 214.76 438.97 190.46 438.84 166.16 C 434.83 166.11 430.83 166.07 426.82 166.10 C 418.62 166.15 410.42 166.11 402.22 166.12 C 402.28 157.99 401.87 149.87 402.07 141.74 Z" />
<path fill="#4e3045" opacity="1.00" d=" M 621.74 141.70 C 621.96 149.84 621.68 157.98 621.69 166.12 C 613.52 166.11 605.35 166.15 597.18 166.09 C 593.17 166.06 589.16 166.11 585.15 166.17 C 585.00 190.45 585.02 214.73 585.15 239.01 C 593.19 239.34 601.25 239.46 609.29 240.04 C 609.58 255.99 609.57 271.96 609.29 287.92 C 593.12 288.12 576.95 287.94 560.78 288.00 C 560.70 243.29 560.71 198.58 560.77 153.87 C 580.84 153.77 600.91 153.97 620.98 153.78 C 621.25 149.76 621.51 145.73 621.74 141.70 Z" />
<path fill="#4e3045" opacity="1.00" d=" M 280.35 154.06 C 300.62 153.59 320.90 153.94 341.18 153.89 C 341.17 157.96 341.17 162.04 341.18 166.11 C 329.04 166.14 316.90 166.09 304.76 166.14 C 304.71 174.22 304.74 182.31 304.73 190.39 C 304.72 198.57 304.73 206.74 304.73 214.92 C 304.72 223.01 304.71 231.11 304.74 239.20 C 312.85 239.23 320.96 239.21 329.07 239.22 C 329.10 255.48 329.12 271.73 329.06 287.99 C 320.95 288.00 312.85 288.02 304.74 288.00 C 296.61 287.97 288.47 288.12 280.34 287.89 C 280.30 243.28 280.29 198.67 280.35 154.06 Z" />
<path fill="#4e3045" opacity="1.00" d=" M 682.82 153.90 C 703.08 153.94 723.35 153.56 743.60 154.08 C 743.59 198.68 743.61 243.27 743.59 287.87 C 735.46 288.13 727.33 287.98 719.20 288.01 C 711.10 288.00 703.01 288.00 694.92 288.00 C 694.92 271.74 694.91 255.48 694.92 239.22 C 703.02 239.22 711.11 239.22 719.22 239.22 C 719.22 231.12 719.22 223.02 719.22 214.92 C 719.22 206.74 719.22 198.56 719.22 190.39 C 719.22 182.30 719.22 174.21 719.21 166.12 C 707.08 166.11 694.95 166.12 682.82 166.11 C 682.82 162.04 682.83 157.97 682.82 153.90 Z" />
<path fill="#4e3045" opacity="1.00" d=" M 219.40 190.43 C 223.46 190.40 227.53 190.36 231.60 190.38 C 231.56 198.55 231.60 206.72 231.58 214.89 C 227.50 214.91 223.43 214.94 219.35 214.93 C 219.36 206.76 219.28 198.59 219.40 190.43 Z" />
<path fill="#4e3045" opacity="1.00" d=" M 792.35 190.38 C 796.39 190.36 800.44 190.40 804.50 190.45 C 804.57 198.60 804.50 206.76 804.54 214.91 C 800.47 214.92 796.41 214.91 792.35 214.91 C 792.35 206.73 792.36 198.56 792.35 190.38 Z" />
<path fill="#4e3045" opacity="1.00" d=" M 244.07 300.09 C 260.12 300.01 276.18 300.01 292.23 300.05 C 292.60 304.14 292.57 308.25 292.77 312.36 C 276.49 312.34 260.21 312.36 243.94 312.34 C 243.92 308.26 243.99 304.17 244.07 300.09 Z" />
<path fill="#4e3045" opacity="1.00" d=" M 341.18 300.05 C 353.40 300.03 365.63 300.05 377.85 300.03 C 377.85 304.17 377.90 308.32 377.95 312.47 C 365.70 312.47 353.45 312.31 341.20 312.32 C 341.19 308.23 341.17 304.14 341.18 300.05 Z" />
<path fill="#4e3045" opacity="1.00" d=" M 426.95 300.12 C 439.02 299.87 451.10 300.15 463.18 300.02 C 463.21 304.03 463.22 308.04 463.23 312.05 C 467.26 312.21 471.29 312.30 475.33 312.38 C 467.20 312.50 459.08 312.34 450.95 312.35 C 442.90 312.37 434.85 312.24 426.81 312.50 L 426.81 312.23 C 426.78 308.19 426.86 304.15 426.95 300.12 Z" />
<path fill="#4e3045" opacity="1.00" d=" M 560.77 300.03 C 572.87 300.13 584.96 299.91 597.05 300.13 C 597.14 304.20 597.21 308.27 597.21 312.35 C 585.07 312.35 572.94 312.36 560.80 312.35 C 560.70 308.24 560.69 304.13 560.77 300.03 Z" />
<path fill="#4e3045" opacity="1.00" d=" M 646.11 300.04 C 658.34 300.04 670.58 300.05 682.81 300.05 C 682.81 304.14 682.82 308.24 682.83 312.34 C 674.59 312.37 666.35 312.36 658.12 312.35 C 654.09 312.35 650.07 312.35 646.05 312.36 C 646.07 308.25 646.10 304.14 646.11 300.04 Z" />
<path fill="#4e3045" opacity="1.00" d=" M 731.36 300.18 C 747.56 299.91 763.78 300.02 779.98 300.12 C 780.04 304.22 780.05 308.33 779.99 312.43 C 763.73 312.64 747.48 312.23 731.23 312.36 C 731.25 308.29 731.33 304.24 731.36 300.18 Z" />
<path fill="#4e3045" opacity="1.00" d=" M 390.04 336.82 C 398.15 336.87 406.26 336.85 414.37 336.84 C 414.41 344.92 414.39 353.01 414.40 361.09 C 414.40 369.24 414.40 377.40 414.40 385.56 C 406.30 385.46 398.20 385.48 390.10 385.55 C 390.09 381.42 390.09 377.30 390.10 373.18 C 390.12 365.13 390.12 357.09 390.11 349.04 C 390.09 344.97 390.07 340.89 390.04 336.82 Z" />
<path fill="#4e3045" opacity="1.00" d=" M 609.54 336.73 C 617.66 336.72 625.79 336.73 633.92 336.73 C 633.89 340.83 633.86 344.94 633.85 349.05 C 633.83 357.09 633.85 365.13 633.85 373.18 C 633.83 377.17 633.86 381.15 633.92 385.14 C 625.78 385.37 617.65 385.33 609.51 385.19 C 609.51 377.16 609.50 369.12 609.51 361.09 C 609.53 352.97 609.51 344.85 609.54 336.73 Z" />
<path fill="#4e3045" opacity="1.00" d=" M 304.89 349.08 C 312.95 348.91 321.01 349.09 329.08 349.04 C 329.07 361.08 329.07 373.12 329.05 385.17 C 321.00 385.29 312.94 385.42 304.88 385.12 C 304.61 373.11 304.60 361.09 304.89 349.08 Z" />
<path fill="#4e3045" opacity="1.00" d=" M 694.93 349.04 C 702.97 349.07 711.01 348.94 719.05 349.12 C 719.29 361.12 719.30 373.12 719.04 385.12 C 711.01 385.41 702.98 385.29 694.95 385.17 C 694.94 373.13 694.94 361.08 694.93 349.04 Z" />
</g>
<g id="#6f5a59ff">
<path fill="#6f5a59" opacity="1.00" d=" M 353.61 93.06 C 369.80 93.03 385.99 93.02 402.19 93.06 C 402.18 101.09 402.19 109.12 402.18 117.14 C 385.99 117.17 369.80 117.24 353.61 117.11 C 353.60 109.09 353.60 101.07 353.61 93.06 Z" />
<path fill="#6f5a59" opacity="1.00" d=" M 646.18 93.11 C 654.25 92.90 662.32 93.07 670.40 93.05 C 670.39 109.29 670.40 125.54 670.39 141.79 C 662.33 141.68 654.27 141.84 646.22 141.68 C 646.00 125.49 646.07 109.30 646.18 93.11 Z" />
<path fill="#6f5a59" opacity="1.00" d=" M 317.02 117.19 C 325.07 117.18 333.11 117.20 341.16 117.17 C 341.21 125.35 341.19 133.52 341.19 141.70 C 333.13 141.67 325.08 141.68 317.02 141.69 C 317.06 133.52 317.06 125.36 317.02 117.19 Z" />
<path fill="#6f5a59" opacity="1.00" d=" M 450.95 117.19 C 455.02 117.20 459.09 117.19 463.17 117.19 C 467.22 117.18 471.27 117.19 475.32 117.18 C 475.39 125.32 475.29 133.46 475.39 141.60 C 471.30 141.73 467.20 141.71 463.11 141.70 C 459.06 141.67 455.01 141.67 450.96 141.69 C 450.91 133.52 450.92 125.36 450.95 117.19 Z" />
<path fill="#6f5a59" opacity="1.00" d=" M 585.05 117.19 C 593.24 117.18 601.42 117.19 609.61 117.20 C 609.46 125.19 609.61 133.19 609.39 141.19 C 601.31 141.25 593.22 141.37 585.15 141.08 C 584.97 133.11 585.10 125.15 585.05 117.19 Z" />
<path fill="#6f5a59" opacity="1.00" d=" M 682.84 117.18 C 690.87 117.20 698.91 117.18 706.94 117.19 C 706.93 125.36 706.93 133.52 706.95 141.69 C 698.90 141.68 690.85 141.67 682.81 141.70 C 682.81 133.52 682.79 125.35 682.84 117.18 Z" />
<path fill="#6f5a59" opacity="1.00" d=" M 378.04 166.17 C 386.10 166.01 394.16 166.13 402.22 166.12 C 402.20 174.20 402.22 182.29 402.21 190.38 C 402.20 198.56 402.21 206.73 402.19 214.91 C 398.16 214.92 394.14 214.93 390.11 214.93 C 386.04 214.93 381.97 214.92 377.91 214.91 C 377.94 198.67 377.64 182.41 378.04 166.17 Z" />
<path fill="#6f5a59" opacity="1.00" d=" M 646.22 166.17 C 654.27 166.01 662.33 166.14 670.39 166.09 C 670.40 174.15 670.39 182.20 670.39 190.26 C 662.32 190.40 654.24 190.53 646.18 190.22 C 646.02 182.21 646.01 174.18 646.22 166.17 Z" />
<path fill="#6f5a59" opacity="1.00" d=" M 621.71 190.77 C 629.80 190.33 637.90 190.31 646.00 190.65 C 646.23 198.74 646.11 206.82 646.07 214.91 C 641.99 214.91 637.91 214.91 633.84 214.91 C 629.80 214.91 625.76 214.91 621.72 214.92 C 621.69 206.87 621.71 198.82 621.71 190.77 Z" />
<path fill="#6f5a59" opacity="1.00" d=" M 658.12 312.35 C 666.35 312.36 674.59 312.37 682.83 312.34 C 690.86 312.33 698.90 312.39 706.94 312.25 C 706.93 320.41 706.93 328.57 706.95 336.72 C 702.93 336.72 698.93 336.73 694.92 336.73 C 682.66 336.72 670.40 336.72 658.14 336.73 C 658.22 328.60 658.22 320.48 658.12 312.35 Z" />
<path fill="#6f5a59" opacity="1.00" d=" M 365.84 312.87 C 373.88 312.61 381.93 312.48 389.97 312.76 C 390.24 320.58 390.02 328.41 390.16 336.24 C 398.22 336.67 406.30 336.53 414.37 336.23 L 414.37 336.84 C 406.26 336.85 398.15 336.87 390.04 336.82 C 381.96 336.69 373.88 336.71 365.80 336.72 C 365.69 328.77 365.59 320.82 365.84 312.87 Z" />
<path fill="#6f5a59" opacity="1.00" d=" M 426.81 312.50 C 434.85 312.24 442.90 312.37 450.95 312.35 C 450.92 320.26 451.04 328.16 450.86 336.07 C 442.84 336.60 434.82 336.16 426.80 336.21 C 426.94 328.31 426.73 320.41 426.81 312.50 Z" />
<path fill="#6f5a59" opacity="1.00" d=" M 756.04 312.93 C 764.02 312.53 772.01 312.67 779.99 312.93 C 780.07 320.86 780.07 328.79 780.04 336.73 C 772.03 336.73 764.01 336.73 756.00 336.73 C 755.92 328.79 755.80 320.86 756.04 312.93 Z" />
<path fill="#6f5a59" opacity="1.00" d=" M 341.20 385.78 C 357.49 385.23 373.80 385.68 390.10 385.55 C 390.10 389.49 390.12 393.44 390.14 397.39 C 390.17 401.54 390.22 405.69 390.20 409.85 C 373.85 409.83 357.51 409.84 341.16 409.85 C 341.22 401.82 341.14 393.80 341.20 385.78 Z" />
<path fill="#6f5a59" opacity="1.00" d=" M 633.93 385.67 C 650.20 385.47 666.49 385.42 682.77 385.68 C 682.87 393.74 682.78 401.79 682.83 409.85 C 666.47 409.84 650.11 409.83 633.76 409.85 C 633.69 401.79 634.08 393.73 633.93 385.67 Z" />
<path fill="#6f5a59" opacity="1.00" d=" M 621.72 434.22 C 629.85 434.18 637.97 434.23 646.09 434.19 C 646.14 450.43 646.10 466.68 646.12 482.92 C 637.98 482.95 629.84 482.89 621.70 482.96 C 621.71 466.71 621.66 450.47 621.72 434.22 Z" />
<path fill="#6f5a59" opacity="1.00" d=" M 377.84 458.94 C 385.96 458.87 394.08 458.89 402.20 458.94 C 402.20 466.94 402.20 474.95 402.20 482.95 C 394.08 482.90 385.95 482.95 377.83 482.92 C 377.83 474.93 377.82 466.93 377.84 458.94 Z" />
<path fill="#6f5a59" opacity="1.00" d=" M 682.81 458.87 C 690.85 458.81 698.89 458.80 706.92 458.86 C 706.94 466.88 706.92 474.90 706.96 482.92 C 698.91 482.94 690.85 482.93 682.80 482.92 C 682.81 474.90 682.80 466.89 682.81 458.87 Z" />
</g>
<g id="#2e1626ff">
<path fill="#2e1626" opacity="1.00" d=" M 183.00 166.11 C 186.98 166.11 190.95 166.10 194.93 166.11 C 199.02 166.11 203.12 166.11 207.21 166.11 C 215.35 166.08 223.48 166.07 231.61 166.10 C 235.72 166.11 239.84 166.10 243.96 166.12 C 247.97 166.12 251.98 166.10 256.00 166.08 C 259.95 166.04 263.91 166.09 267.86 166.15 C 268.25 182.40 267.92 198.66 268.05 214.92 C 264.03 214.93 260.02 214.91 256.01 214.92 C 255.99 206.74 256.02 198.57 255.98 190.40 C 247.86 190.39 239.73 190.41 231.60 190.38 C 227.53 190.36 223.46 190.40 219.40 190.43 C 219.28 198.59 219.36 206.76 219.35 214.93 C 211.22 214.93 203.09 214.83 194.96 214.99 C 191.00 215.08 187.04 214.99 183.08 214.81 C 182.85 198.58 182.95 182.34 183.00 166.11 Z" />
<path fill="#2e1626" opacity="1.00" d=" M 756.12 166.13 C 760.08 166.08 764.04 166.03 768.00 166.07 C 772.01 166.11 776.03 166.12 780.05 166.12 C 784.14 166.11 788.23 166.11 792.32 166.10 C 800.46 166.05 808.59 166.07 816.73 166.11 C 820.83 166.12 824.94 166.11 829.04 166.11 C 833.01 166.10 836.98 166.11 840.96 166.11 C 841.03 182.35 841.20 198.59 840.88 214.82 C 836.93 214.94 832.98 215.00 829.04 214.95 C 820.87 214.88 812.70 214.93 804.54 214.91 C 804.50 206.76 804.57 198.60 804.50 190.45 C 800.44 190.40 796.39 190.36 792.35 190.38 C 784.23 190.41 776.12 190.39 768.00 190.39 C 767.99 198.37 768.00 206.34 768.00 214.31 C 764.03 214.33 760.06 214.28 756.10 214.14 C 755.87 198.14 755.89 182.13 756.12 166.13 Z" />
<path fill="#2e1626" opacity="1.00" d=" M 195.03 336.72 C 211.34 336.72 227.65 336.73 243.96 336.73 C 260.27 336.73 276.59 336.72 292.91 336.73 C 292.77 340.88 292.56 345.03 292.40 349.19 C 276.29 348.98 260.16 348.97 244.05 349.16 C 243.97 353.14 243.89 357.11 243.89 361.09 C 231.66 361.11 219.44 361.06 207.22 361.12 C 203.19 361.16 199.16 361.06 195.14 360.90 C 194.82 352.84 194.92 344.78 195.03 336.72 Z" />
<path fill="#2e1626" opacity="1.00" d=" M 414.37 336.84 C 418.50 336.76 422.63 336.68 426.77 336.66 C 438.85 336.57 450.92 336.69 463.00 336.74 C 463.17 340.83 463.16 344.93 463.02 349.03 C 451.01 349.13 439.00 348.89 427.00 349.14 C 426.90 353.12 426.81 357.10 426.81 361.09 C 422.67 361.09 418.53 361.09 414.40 361.09 C 414.39 353.01 414.41 344.92 414.37 336.84 Z" />
<path fill="#2e1626" opacity="1.00" d=" M 560.91 336.73 C 573.00 336.73 585.09 336.73 597.18 336.73 C 601.29 336.72 605.41 336.73 609.54 336.73 C 609.51 344.85 609.53 352.97 609.51 361.09 C 605.40 361.08 601.30 361.08 597.20 361.09 C 597.18 357.11 597.08 353.13 596.98 349.15 C 584.96 348.85 572.95 349.16 560.94 349.05 C 560.80 344.94 560.77 340.83 560.91 336.73 Z" />
<path fill="#2e1626" opacity="1.00" d=" M 731.18 336.73 C 739.45 336.73 747.72 336.72 756.00 336.73 C 764.01 336.73 772.03 336.73 780.04 336.73 C 796.36 336.73 812.67 336.72 828.99 336.73 C 829.02 344.76 829.21 352.79 828.94 360.82 C 824.87 361.02 820.80 361.15 816.73 361.11 C 804.52 361.06 792.31 361.10 780.10 361.09 C 780.10 357.10 780.01 353.11 779.94 349.12 C 763.69 348.87 747.44 349.19 731.19 349.02 C 731.23 344.92 731.22 340.82 731.18 336.73 Z" />
<path fill="#2e1626" opacity="1.00" d=" M 292.53 385.72 C 304.70 385.66 316.87 386.25 329.05 385.97 C 329.12 393.92 329.07 401.88 329.11 409.83 C 333.13 409.84 337.14 409.85 341.16 409.85 C 357.51 409.84 373.85 409.83 390.20 409.85 C 390.18 413.86 390.03 417.87 389.88 421.88 C 377.73 422.32 365.57 421.98 353.42 422.06 C 341.33 422.00 329.23 422.33 317.14 421.97 C 316.91 413.97 317.24 405.96 316.91 397.96 C 308.79 397.62 300.66 397.78 292.53 397.85 C 292.53 393.80 292.53 389.76 292.53 385.72 Z" />
<path fill="#2e1626" opacity="1.00" d=" M 390.10 385.55 C 398.20 385.48 406.30 385.46 414.40 385.56 C 414.40 389.64 414.39 393.73 414.39 397.81 C 406.31 397.67 398.22 397.85 390.14 397.39 C 390.12 393.44 390.10 389.49 390.10 385.55 Z" />
<path fill="#2e1626" opacity="1.00" d=" M 609.51 386.15 C 617.36 386.11 625.22 385.97 633.07 386.21 C 633.12 390.02 633.10 393.84 632.99 397.66 C 625.16 397.82 617.34 397.67 609.52 397.85 C 609.51 393.94 609.51 390.04 609.51 386.15 Z" />
<path fill="#2e1626" opacity="1.00" d=" M 694.95 385.96 C 711.16 386.33 727.37 385.26 743.58 385.76 C 743.57 393.78 743.58 401.81 743.58 409.84 C 755.74 409.84 767.91 409.84 780.07 409.84 C 780.07 417.96 780.07 426.08 779.98 434.20 C 767.85 434.20 755.73 434.19 743.61 434.20 C 739.52 434.21 735.43 434.20 731.35 434.20 C 731.10 422.14 731.60 410.08 731.07 398.02 C 723.08 397.61 715.07 397.60 707.08 397.99 C 706.78 405.98 707.09 413.98 706.85 421.97 C 694.77 422.32 682.68 422.01 670.60 422.06 C 658.43 421.94 646.25 422.35 634.09 421.86 C 633.93 417.86 633.77 413.85 633.76 409.85 C 650.11 409.83 666.47 409.84 682.83 409.85 C 686.85 409.85 690.87 409.84 694.89 409.83 C 694.93 401.88 694.87 393.92 694.95 385.96 Z" />
<path fill="#2e1626" opacity="1.00" d=" M 243.96 409.85 C 260.16 409.84 276.36 409.85 292.55 409.85 C 292.69 417.96 292.72 426.08 292.56 434.20 C 288.48 434.20 284.40 434.21 280.33 434.20 C 268.22 434.19 256.11 434.20 244.00 434.20 C 243.87 426.08 243.96 417.96 243.96 409.85 Z" />
<path fill="#2e1626" opacity="1.00" d=" M 244.00 458.81 C 256.11 458.82 268.21 458.83 280.32 458.81 C 284.40 458.80 288.48 458.81 292.56 458.82 C 292.67 466.84 292.61 474.87 292.71 482.90 C 276.51 482.92 260.30 483.16 244.10 482.83 C 243.82 474.82 243.99 466.82 244.00 458.81 Z" />
<path fill="#2e1626" opacity="1.00" d=" M 731.34 458.82 C 735.43 458.81 739.52 458.81 743.61 458.81 C 755.73 458.83 767.85 458.82 779.98 458.82 C 780.08 466.82 780.22 474.84 779.84 482.84 C 763.64 483.00 747.42 483.10 731.22 482.86 C 731.33 474.85 731.28 466.83 731.34 458.82 Z" />
</g>
<g id="#995a3cff">
<path fill="#995a3c" opacity="1.00" d=" M 304.76 166.14 C 316.90 166.09 329.04 166.14 341.18 166.11 C 341.19 174.20 341.18 182.29 341.18 190.39 C 333.14 190.41 325.09 190.39 317.05 190.40 C 312.94 190.40 308.83 190.40 304.73 190.39 C 304.74 182.31 304.71 174.22 304.76 166.14 Z" />
<path fill="#995a3c" opacity="1.00" d=" M 402.22 166.12 C 410.42 166.11 418.62 166.15 426.82 166.10 C 426.80 174.19 426.81 182.29 426.81 190.39 C 422.67 190.40 418.53 190.40 414.40 190.40 C 410.33 190.40 406.27 190.39 402.21 190.38 C 402.22 182.29 402.20 174.20 402.22 166.12 Z" />
<path fill="#995a3c" opacity="1.00" d=" M 231.60 190.38 C 239.73 190.41 247.86 190.39 255.98 190.40 C 256.02 198.57 255.99 206.74 256.01 214.92 C 260.02 214.91 264.03 214.93 268.05 214.92 C 268.05 239.27 268.08 263.63 268.04 287.98 C 243.67 288.03 219.30 287.99 194.93 288.00 C 194.94 279.86 194.91 271.72 194.95 263.58 C 215.29 263.58 235.64 263.58 255.99 263.58 C 256.01 255.46 256.00 247.34 255.99 239.22 C 243.78 239.22 231.57 239.23 219.36 239.21 C 219.35 231.12 219.36 223.02 219.35 214.93 C 223.43 214.94 227.50 214.91 231.58 214.89 C 231.60 206.72 231.56 198.55 231.60 190.38 Z" />
<path fill="#995a3c" opacity="1.00" d=" M 207.22 361.12 C 219.44 361.06 231.66 361.11 243.89 361.09 C 260.07 361.07 276.25 361.12 292.44 361.06 C 292.54 365.10 292.55 369.13 292.54 373.18 C 276.37 373.23 260.20 373.16 244.03 373.20 C 243.85 385.42 243.99 397.63 243.96 409.85 C 231.72 409.84 219.47 409.85 207.22 409.84 C 207.22 393.60 207.23 377.36 207.22 361.12 Z" />
<path fill="#995a3c" opacity="1.00" d=" M 414.40 361.09 C 418.53 361.09 422.67 361.09 426.81 361.09 C 434.85 361.09 442.88 361.07 450.92 361.10 C 450.93 365.12 450.93 369.14 450.93 373.16 C 442.91 373.22 434.89 373.15 426.88 373.23 C 426.74 385.43 426.85 397.64 426.82 409.84 C 422.66 409.85 418.50 409.85 414.35 409.83 C 414.38 405.82 414.38 401.82 414.39 397.81 C 414.39 393.73 414.40 389.64 414.40 385.56 C 414.40 377.40 414.40 369.24 414.40 361.09 Z" />
</g>
<g id="#d36c2eff">
<path fill="#d36c2e" opacity="1.00" d=" M 597.18 166.09 C 605.35 166.15 613.52 166.11 621.69 166.12 C 621.71 174.20 621.69 182.28 621.71 190.36 C 617.64 190.40 613.57 190.40 609.51 190.40 C 605.40 190.40 601.29 190.40 597.19 190.39 C 597.18 182.29 597.19 174.19 597.18 166.09 Z" />
<path fill="#d36c2e" opacity="1.00" d=" M 804.54 214.91 C 812.70 214.93 820.87 214.88 829.04 214.95 C 829.05 239.30 829.04 263.65 829.05 288.00 C 812.72 288.00 796.39 288.00 780.06 288.00 C 780.07 271.74 780.03 255.48 780.07 239.22 C 788.22 239.20 796.36 239.25 804.51 239.19 C 804.55 231.10 804.52 223.01 804.54 214.91 Z" />
</g>
<g id="#cfa674ff">
<path fill="#cfa674" opacity="1.00" d=" M 682.82 166.11 C 694.95 166.12 707.08 166.11 719.21 166.12 C 719.22 174.21 719.22 182.30 719.22 190.39 C 715.12 190.39 711.02 190.40 706.93 190.40 C 698.89 190.40 690.85 190.40 682.81 190.40 C 682.81 182.30 682.80 174.21 682.82 166.11 Z" />
<path fill="#cfa674" opacity="1.00" d=" M 768.00 190.39 C 776.12 190.39 784.23 190.41 792.35 190.38 C 792.36 198.56 792.35 206.73 792.35 214.91 C 796.41 214.91 800.47 214.92 804.54 214.91 C 804.52 223.01 804.55 231.10 804.51 239.19 C 796.36 239.25 788.22 239.20 780.07 239.22 C 780.03 255.48 780.07 271.74 780.06 288.00 C 772.02 288.00 763.98 288.00 755.95 287.99 C 755.94 263.66 755.94 239.33 755.95 214.99 C 759.96 214.98 763.98 214.96 768.00 214.98 L 768.00 214.31 C 768.00 206.34 767.99 198.37 768.00 190.39 Z" />
<path fill="#cfa674" opacity="1.00" d=" M 633.84 214.91 C 637.91 214.91 641.99 214.91 646.07 214.91 C 654.16 214.92 662.26 214.91 670.36 214.91 C 674.51 214.91 678.66 214.91 682.81 214.92 C 682.82 218.92 682.80 222.92 682.80 226.92 C 666.49 226.94 650.17 226.95 633.85 226.91 C 633.85 222.91 633.82 218.91 633.84 214.91 Z" />
<path fill="#cfa674" opacity="1.00" d=" M 573.05 361.10 C 581.09 361.07 589.14 361.10 597.20 361.09 C 601.30 361.08 605.40 361.08 609.51 361.09 C 609.50 369.12 609.51 377.16 609.51 385.19 L 609.51 386.15 C 609.51 390.04 609.51 393.94 609.52 397.85 C 609.53 401.84 609.51 405.84 609.57 409.83 C 605.44 409.84 601.32 409.84 597.19 409.84 C 597.17 397.63 597.23 385.42 597.17 373.21 C 589.13 373.17 581.09 373.21 573.05 373.18 C 573.04 369.15 573.04 365.13 573.05 361.10 Z" />
<path fill="#cfa674" opacity="1.00" d=" M 743.58 361.12 C 755.75 361.05 767.93 361.10 780.10 361.09 C 792.31 361.10 804.52 361.06 816.73 361.11 C 816.72 377.35 816.72 393.60 816.73 409.84 C 804.51 409.84 792.29 409.84 780.07 409.84 C 780.02 397.63 780.10 385.42 780.03 373.20 C 767.88 373.16 755.73 373.24 743.58 373.16 C 743.58 369.15 743.58 365.13 743.58 361.12 Z" />
</g>
<g id="#ffffffff">
<path fill="#ffffff" opacity="1.00" d=" M 304.73 190.39 C 308.83 190.40 312.94 190.40 317.05 190.40 C 317.05 198.57 317.05 206.74 317.05 214.91 C 312.94 214.91 308.83 214.91 304.73 214.92 C 304.73 206.74 304.72 198.57 304.73 190.39 Z" />
<path fill="#ffffff" opacity="1.00" d=" M 414.40 190.40 C 418.53 190.40 422.67 190.40 426.81 190.39 C 426.81 198.57 426.81 206.74 426.81 214.92 C 422.67 214.92 418.53 214.91 414.40 214.91 C 414.40 206.74 414.40 198.57 414.40 190.40 Z" />
<path fill="#ffffff" opacity="1.00" d=" M 597.19 190.39 C 601.29 190.40 605.40 190.40 609.51 190.40 C 609.52 198.57 609.50 206.74 609.52 214.91 C 605.41 214.91 601.30 214.91 597.19 214.92 C 597.18 206.75 597.19 198.57 597.19 190.39 Z" />
<path fill="#ffffff" opacity="1.00" d=" M 706.93 190.40 C 711.02 190.40 715.12 190.39 719.22 190.39 C 719.22 198.56 719.22 206.74 719.22 214.92 C 715.12 214.91 711.02 214.91 706.93 214.91 C 706.93 206.74 706.93 198.57 706.93 190.40 Z" />
</g>
<g id="#5835a2ff">
<path fill="#5835a2" opacity="1.00" d=" M 317.05 190.40 C 325.09 190.39 333.14 190.41 341.18 190.39 C 341.19 198.56 341.18 206.74 341.19 214.91 C 333.14 214.91 325.09 214.91 317.05 214.91 C 317.05 206.74 317.05 198.57 317.05 190.40 Z" />
<path fill="#5835a2" opacity="1.00" d=" M 402.21 190.38 C 406.27 190.39 410.33 190.40 414.40 190.40 C 414.40 198.57 414.40 206.74 414.40 214.91 C 410.33 214.91 406.26 214.91 402.19 214.91 C 402.21 206.73 402.20 198.56 402.21 190.38 Z" />
</g>
<g id="#236224ff">
<path fill="#236224" opacity="1.00" d=" M 609.51 190.40 C 613.57 190.40 617.64 190.40 621.71 190.36 L 621.71 190.77 C 621.71 198.82 621.69 206.87 621.72 214.92 C 617.65 214.92 613.59 214.92 609.52 214.91 C 609.50 206.74 609.52 198.57 609.51 190.40 Z" />
<path fill="#236224" opacity="1.00" d=" M 682.81 190.40 C 690.85 190.40 698.89 190.40 706.93 190.40 C 706.93 198.57 706.93 206.74 706.93 214.91 C 698.89 214.92 690.85 214.92 682.81 214.92 C 682.81 206.74 682.81 198.57 682.81 190.40 Z" />
</g>
<g id="#0d0705ff">
<path fill="#0d0705" opacity="1.00" d=" M 194.96 214.99 C 203.09 214.83 211.22 214.93 219.35 214.93 C 219.36 223.02 219.35 231.12 219.36 239.21 C 231.57 239.23 243.78 239.22 255.99 239.22 C 256.00 247.34 256.01 255.46 255.99 263.58 C 235.64 263.58 215.29 263.58 194.95 263.58 C 194.93 247.38 194.90 231.18 194.96 214.99 Z" />
</g>
<g id="#b07e64ff">
<path fill="#b07e64" opacity="1.00" d=" M 304.73 214.92 C 308.83 214.91 312.94 214.91 317.05 214.91 C 325.09 214.91 333.14 214.91 341.19 214.91 C 341.19 223.01 341.19 231.12 341.19 239.22 C 337.15 239.21 333.11 239.22 329.07 239.22 C 320.96 239.21 312.85 239.23 304.74 239.20 C 304.71 231.11 304.72 223.01 304.73 214.92 Z" />
<path fill="#b07e64" opacity="1.00" d=" M 390.11 214.93 C 394.14 214.93 398.16 214.92 402.19 214.91 C 406.26 214.91 410.33 214.91 414.40 214.91 C 418.53 214.91 422.67 214.92 426.81 214.92 C 426.81 223.03 426.81 231.14 426.82 239.25 C 418.62 239.22 410.42 239.11 402.22 239.18 C 398.18 239.20 394.15 239.23 390.11 239.22 C 390.11 231.12 390.12 223.02 390.11 214.93 Z" />
<path fill="#b07e64" opacity="1.00" d=" M 244.03 373.20 C 260.20 373.16 276.37 373.23 292.54 373.18 C 292.52 377.36 292.52 381.54 292.53 385.72 C 292.53 389.76 292.53 393.80 292.53 397.85 C 292.53 401.84 292.52 405.84 292.55 409.85 C 276.36 409.85 260.16 409.84 243.96 409.85 C 243.99 397.63 243.85 385.42 244.03 373.20 Z" />
<path fill="#b07e64" opacity="1.00" d=" M 426.88 373.23 C 434.89 373.15 442.91 373.22 450.93 373.16 C 450.93 385.39 450.93 397.62 450.93 409.85 C 442.89 409.84 434.86 409.84 426.82 409.84 C 426.85 397.64 426.74 385.43 426.88 373.23 Z" />
</g>
<g id="#6a4030ff">
<path fill="#6a4030" opacity="1.00" d=" M 341.19 214.91 C 345.31 214.92 349.43 214.92 353.56 214.92 C 361.67 214.91 369.79 214.91 377.91 214.91 C 381.97 214.92 386.04 214.93 390.11 214.93 C 390.12 223.02 390.11 231.12 390.11 239.22 C 373.81 239.22 357.50 239.22 341.19 239.22 C 341.19 231.12 341.19 223.01 341.19 214.91 Z" />
</g>
<g id="#f2dbbdff">
<path fill="#f2dbbd" opacity="1.00" d=" M 597.19 214.92 C 601.30 214.91 605.41 214.91 609.52 214.91 C 613.59 214.92 617.65 214.92 621.72 214.92 C 625.76 214.91 629.80 214.91 633.84 214.91 C 633.82 218.91 633.85 222.91 633.85 226.91 C 650.17 226.95 666.49 226.94 682.80 226.92 C 682.80 222.92 682.82 218.92 682.81 214.92 C 690.85 214.92 698.89 214.92 706.93 214.91 C 711.02 214.91 715.12 214.91 719.22 214.92 C 719.22 223.02 719.22 231.12 719.22 239.22 C 711.11 239.22 703.02 239.22 694.92 239.22 C 694.91 255.48 694.92 271.74 694.92 288.00 C 690.88 288.00 686.86 288.00 682.83 288.00 C 670.58 288.00 658.34 288.00 646.10 288.00 C 637.96 288.00 629.83 288.00 621.70 287.99 C 621.69 271.73 621.70 255.48 621.70 239.22 C 613.53 239.19 605.36 239.33 597.19 239.24 C 597.19 231.13 597.19 223.03 597.19 214.92 M 634.02 239.22 C 633.73 247.35 633.70 255.49 634.06 263.62 C 650.29 263.61 666.51 263.62 682.75 263.62 C 682.89 255.50 682.87 247.37 682.77 239.26 C 666.52 239.15 650.27 239.21 634.02 239.22 Z" />
<path fill="#f2dbbd" opacity="1.00" d=" M 573.05 373.18 C 581.09 373.21 589.13 373.17 597.17 373.21 C 597.23 385.42 597.17 397.63 597.19 409.84 C 589.14 409.85 581.10 409.84 573.05 409.85 C 573.05 397.62 573.05 385.40 573.05 373.18 Z" />
<path fill="#f2dbbd" opacity="1.00" d=" M 743.58 385.76 C 743.57 381.56 743.57 377.36 743.58 373.16 C 755.73 373.24 767.88 373.16 780.03 373.20 C 780.10 385.42 780.02 397.63 780.07 409.84 C 767.91 409.84 755.74 409.84 743.58 409.84 C 743.58 401.81 743.57 393.78 743.58 385.76 Z" />
</g>
<g id="#4a2b17ff">
<path fill="#4a2b17" opacity="1.00" d=" M 329.07 239.22 C 333.11 239.22 337.15 239.21 341.19 239.22 C 341.19 247.34 341.18 255.46 341.20 263.58 C 357.50 263.58 373.80 263.59 390.11 263.57 C 390.13 255.45 390.11 247.34 390.11 239.22 C 394.15 239.23 398.18 239.20 402.22 239.18 L 402.22 239.63 C 402.09 255.75 402.26 271.88 402.13 288.00 C 394.04 288.00 385.95 288.00 377.86 288.00 C 365.63 288.02 353.40 287.98 341.18 288.00 C 337.13 288.00 333.09 287.99 329.06 287.99 C 329.12 271.73 329.10 255.48 329.07 239.22 Z" />
</g>
<g id="#bc645aff">
<path fill="#bc645a" opacity="1.00" d=" M 341.19 239.22 C 357.50 239.22 373.81 239.22 390.11 239.22 C 390.11 247.34 390.13 255.45 390.11 263.57 C 373.80 263.59 357.50 263.58 341.20 263.58 C 341.18 255.46 341.19 247.34 341.19 239.22 Z" />
</g>
<g id="#efbbb1ff">
<path fill="#efbbb1" opacity="1.00" d=" M 634.02 239.22 C 650.27 239.21 666.52 239.15 682.77 239.26 C 682.87 247.37 682.89 255.50 682.75 263.62 C 666.51 263.62 650.29 263.61 634.06 263.62 C 633.70 255.49 633.73 247.35 634.02 239.22 Z" />
</g>
<g id="#3a2734ff">
<path fill="#3a2734" opacity="1.00" d=" M 244.05 349.16 C 260.16 348.97 276.29 348.98 292.40 349.19 C 292.26 353.14 292.32 357.10 292.44 361.06 C 276.25 361.12 260.07 361.07 243.89 361.09 C 243.89 357.11 243.97 353.14 244.05 349.16 Z" />
<path fill="#3a2734" opacity="1.00" d=" M 427.00 349.14 C 439.00 348.89 451.01 349.13 463.02 349.03 C 463.23 353.00 463.24 356.98 463.04 360.96 C 459.00 361.07 454.96 361.13 450.92 361.10 C 442.88 361.07 434.85 361.09 426.81 361.09 C 426.81 357.10 426.90 353.12 427.00 349.14 Z" />
<path fill="#3a2734" opacity="1.00" d=" M 560.94 349.05 C 572.95 349.16 584.96 348.85 596.98 349.15 C 597.08 353.13 597.18 357.11 597.20 361.09 C 589.14 361.10 581.09 361.07 573.05 361.10 C 569.00 361.14 564.95 361.06 560.92 360.93 C 560.71 356.97 560.72 353.01 560.94 349.05 Z" />
<path fill="#3a2734" opacity="1.00" d=" M 731.19 349.02 C 747.44 349.19 763.69 348.87 779.94 349.12 C 780.01 353.11 780.10 357.10 780.10 361.09 C 767.93 361.10 755.75 361.05 743.58 361.12 C 739.46 361.14 735.34 360.98 731.24 360.80 C 731.18 356.87 731.14 352.95 731.19 349.02 Z" />
<path fill="#3a2734" opacity="1.00" d=" M 292.53 397.85 C 300.66 397.78 308.79 397.62 316.91 397.96 C 317.24 405.96 316.91 413.97 317.14 421.97 C 329.23 422.33 341.33 422.00 353.42 422.06 C 354.39 432.01 353.82 442.00 353.92 451.98 C 353.81 462.29 354.38 472.62 353.44 482.92 C 349.36 482.97 345.27 482.99 341.19 482.93 C 341.17 466.69 341.21 450.45 341.17 434.22 C 333.13 434.18 325.09 434.22 317.05 434.19 C 312.98 434.17 308.91 434.20 304.85 434.23 C 304.60 450.46 304.81 466.69 304.75 482.92 C 300.73 482.99 296.72 482.98 292.71 482.90 C 292.61 474.87 292.67 466.84 292.56 458.82 C 292.51 450.61 292.50 442.41 292.56 434.20 C 292.72 426.08 292.69 417.96 292.55 409.85 C 292.52 405.84 292.53 401.84 292.53 397.85 Z" />
<path fill="#3a2734" opacity="1.00" d=" M 707.08 397.99 C 715.07 397.60 723.08 397.61 731.07 398.02 C 731.60 410.08 731.10 422.14 731.35 434.20 C 731.37 442.41 731.37 450.61 731.34 458.82 C 731.28 466.83 731.33 474.85 731.22 482.86 C 727.21 482.97 723.20 482.99 719.20 482.92 C 719.15 466.69 719.35 450.46 719.11 434.23 C 715.04 434.21 710.99 434.17 706.93 434.19 C 698.90 434.22 690.86 434.18 682.83 434.22 C 682.79 442.43 682.82 450.65 682.81 458.87 C 682.80 466.89 682.81 474.90 682.80 482.92 C 678.71 482.98 674.63 482.98 670.54 482.95 C 669.57 473.01 670.24 463.02 670.08 453.05 C 670.25 442.72 669.49 432.36 670.60 422.06 C 682.68 422.01 694.77 422.32 706.85 421.97 C 707.09 413.98 706.78 405.98 707.08 397.99 Z" />
</g>
<g id="#35232fff">
<path fill="#35232f" opacity="1.00" d=" M 609.51 385.19 C 617.65 385.33 625.78 385.37 633.92 385.14 L 633.93 385.67 C 634.08 393.73 633.69 401.79 633.76 409.85 C 633.77 413.85 633.93 417.86 634.09 421.86 C 646.25 422.35 658.43 421.94 670.60 422.06 C 669.49 432.36 670.25 442.72 670.08 453.05 C 670.24 463.02 669.57 473.01 670.54 482.95 C 666.42 483.05 662.31 483.04 658.20 482.91 C 658.12 466.68 658.35 450.45 658.09 434.23 C 654.09 434.20 650.09 434.16 646.09 434.19 C 637.97 434.23 629.85 434.18 621.72 434.22 C 621.66 450.47 621.71 466.71 621.70 482.96 C 617.78 483.09 613.87 483.03 609.96 482.84 C 609.43 474.83 609.90 466.79 609.59 458.77 C 609.46 450.59 609.47 442.41 609.59 434.24 C 609.78 426.10 609.78 417.97 609.57 409.83 C 609.51 405.84 609.53 401.84 609.52 397.85 C 617.34 397.67 625.16 397.82 632.99 397.66 C 633.10 393.84 633.12 390.02 633.07 386.21 C 625.22 385.97 617.36 386.11 609.51 386.15 L 609.51 385.19 Z" />
<path fill="#35232f" opacity="1.00" d=" M 390.14 397.39 C 398.22 397.85 406.31 397.67 414.39 397.81 C 414.38 401.82 414.38 405.82 414.35 409.83 C 414.20 417.97 414.20 426.10 414.35 434.24 C 414.43 442.42 414.45 450.60 414.34 458.78 C 414.09 466.80 414.47 474.82 414.06 482.84 C 410.10 483.02 406.15 483.07 402.20 482.95 C 402.20 474.95 402.20 466.94 402.20 458.94 C 402.20 450.70 402.22 442.46 402.18 434.22 C 394.08 434.18 385.97 434.22 377.87 434.19 C 373.85 434.16 369.83 434.20 365.81 434.23 C 365.56 450.46 365.75 466.70 365.72 482.93 C 361.63 483.07 357.53 483.06 353.44 482.92 C 354.38 472.62 353.81 462.29 353.92 451.98 C 353.82 442.00 354.39 432.01 353.42 422.06 C 365.57 421.98 377.73 422.32 389.88 421.88 C 390.03 417.87 390.18 413.86 390.20 409.85 C 390.22 405.69 390.17 401.54 390.14 397.39 Z" />
</g>
<g id="#453c53ff">
<path fill="#453c53" opacity="1.00" d=" M 231.66 434.21 C 235.77 434.20 239.88 434.20 244.00 434.20 C 256.11 434.20 268.22 434.19 280.33 434.20 C 280.37 442.41 280.37 450.61 280.32 458.81 C 268.21 458.83 256.11 458.82 244.00 458.81 C 240.02 458.77 236.02 459.06 232.06 458.65 C 230.90 450.63 231.86 442.33 231.66 434.21 Z" />
<path fill="#453c53" opacity="1.00" d=" M 365.81 434.23 C 369.83 434.20 373.85 434.16 377.87 434.19 C 377.83 442.44 377.86 450.68 377.84 458.94 C 377.82 466.93 377.83 474.93 377.83 482.92 C 373.79 482.95 369.76 482.94 365.72 482.93 C 365.75 466.70 365.56 450.46 365.81 434.23 Z" />
<path fill="#453c53" opacity="1.00" d=" M 414.35 434.24 C 418.50 434.19 422.64 434.19 426.79 434.23 C 426.82 442.41 426.82 450.60 426.79 458.79 C 422.64 458.83 418.49 458.82 414.34 458.78 C 414.45 450.60 414.43 442.42 414.35 434.24 Z" />
<path fill="#453c53" opacity="1.00" d=" M 597.21 434.23 C 601.33 434.19 605.46 434.19 609.59 434.24 C 609.47 442.41 609.46 450.59 609.59 458.77 C 605.46 458.82 601.34 458.83 597.21 458.79 C 597.17 450.60 597.18 442.41 597.21 434.23 Z" />
<path fill="#453c53" opacity="1.00" d=" M 646.09 434.19 C 650.09 434.16 654.09 434.20 658.09 434.23 C 658.35 450.45 658.12 466.68 658.20 482.91 C 654.17 482.94 650.14 482.96 646.12 482.92 C 646.10 466.68 646.14 450.43 646.09 434.19 Z" />
<path fill="#453c53" opacity="1.00" d=" M 743.61 434.20 C 755.73 434.19 767.85 434.20 779.98 434.20 C 784.07 434.20 788.17 434.20 792.28 434.21 C 792.39 442.41 792.41 450.61 792.28 458.81 C 788.17 458.81 784.07 458.82 779.98 458.82 C 767.85 458.82 755.73 458.83 743.61 458.81 C 743.56 450.61 743.56 442.41 743.61 434.20 Z" />
</g>
<g id="#6a5f6aff">
<path fill="#6a5f6a" opacity="1.00" d=" M 377.87 434.19 C 385.97 434.22 394.08 434.18 402.18 434.22 C 402.22 442.46 402.20 450.70 402.20 458.94 C 394.08 458.89 385.96 458.87 377.84 458.94 C 377.86 450.68 377.83 442.44 377.87 434.19 Z" />
</g>
</svg>
