<?xml version="1.0" encoding="UTF-8" ?>
<!DOCTYPE svg PUBLIC "-//W3C//DTD SVG 1.1//EN" "http://www.w3.org/Graphics/SVG/1.1/DTD/svg11.dtd">
<svg width="1024pt" height="576pt" viewBox="0 0 1024 576" version="1.1" xmlns="http://www.w3.org/2000/svg">
<g id="#242425ff">
</g>
<g id="#4a2b17ff">
<path fill="#4a2b17" opacity="1.00" d=" M 268.12 93.12 C 333.14 93.00 398.17 93.01 463.20 93.11 C 463.24 117.45 463.20 141.78 463.22 166.12 C 455.12 166.10 447.03 166.15 438.93 166.10 C 438.87 157.97 438.94 149.84 438.90 141.72 C 390.12 141.68 341.33 141.70 292.55 141.71 C 292.50 149.83 292.57 157.96 292.51 166.08 C 284.37 166.16 276.22 166.12 268.07 166.10 C 268.06 141.77 267.97 117.45 268.12 93.12 Z" />
<path fill="#4a2b17" opacity="1.00" d=" M 317.07 239.22 C 325.11 239.21 333.15 239.22 341.19 239.22 C 341.20 247.33 341.15 255.45 341.21 263.57 C 357.51 263.58 373.80 263.60 390.09 263.56 C 390.15 255.44 390.10 247.33 390.12 239.22 C 398.21 239.23 406.31 239.20 414.41 239.23 C 414.39 255.49 414.41 271.74 414.40 288.00 C 381.95 288.00 349.50 288.00 317.05 288.00 C 317.06 271.74 317.03 255.48 317.07 239.22 Z" />
</g>
<g id="#0d0705ff">
<path fill="#0d0705" opacity="1.00" d=" M 463.20 93.11 C 483.48 92.95 503.76 93.05 524.04 93.07 C 524.08 149.90 524.05 206.74 524.06 263.58 C 507.82 263.57 491.59 263.59 475.36 263.57 C 475.34 255.46 475.34 247.35 475.36 239.24 C 487.57 239.19 499.77 239.25 511.98 239.21 C 512.00 222.94 512.02 206.66 511.98 190.39 C 499.77 190.40 487.57 190.38 475.37 190.41 C 475.32 198.57 475.39 206.73 475.34 214.90 C 471.30 214.92 467.26 214.92 463.22 214.92 C 463.21 198.65 463.22 182.39 463.22 166.12 C 463.20 141.78 463.24 117.45 463.20 93.11 Z" />
</g>
<g id="#cf8432ff">
<path fill="#cf8432" opacity="1.00" d=" M 524.04 93.07 C 544.38 93.02 564.71 93.05 585.05 93.05 C 585.13 125.50 585.06 157.94 585.10 190.38 C 585.08 198.56 585.09 206.74 585.09 214.92 C 581.08 214.95 577.08 214.95 573.08 214.88 C 572.90 206.72 573.24 198.55 572.91 190.39 C 560.74 190.42 548.57 190.33 536.40 190.44 C 536.30 206.66 536.33 222.88 536.39 239.11 C 544.48 239.39 552.59 239.07 560.69 239.25 C 560.81 255.50 560.66 271.75 560.75 288.00 C 548.52 288.00 536.28 288.00 524.05 288.00 C 524.05 279.86 524.06 271.72 524.06 263.58 C 524.05 206.74 524.08 149.90 524.04 93.07 Z" />
<path fill="#cf8432" opacity="1.00" d=" M 682.83 288.00 C 699.00 288.00 715.17 288.00 731.35 288.00 C 731.36 292.00 731.35 295.99 731.35 299.99 C 715.17 300.09 698.99 300.02 682.82 300.06 C 682.81 296.04 682.81 292.02 682.83 288.00 Z" />
</g>
<g id="#e59947ff">
<path fill="#e59947" opacity="1.00" d=" M 585.05 93.05 C 650.05 93.05 715.05 93.03 780.05 93.06 C 780.06 117.41 780.05 141.77 780.05 166.12 C 780.05 174.21 780.06 182.30 780.05 190.39 C 772.02 190.39 764.00 190.43 755.98 190.38 C 755.88 182.29 755.99 174.21 755.93 166.13 C 747.74 166.09 739.55 166.15 731.37 166.10 C 731.29 157.97 731.40 149.84 731.32 141.72 C 715.16 141.68 699.00 141.68 682.84 141.72 C 682.77 149.84 682.86 157.97 682.80 166.09 C 674.60 166.17 666.40 166.08 658.21 166.13 C 658.18 174.22 658.21 182.30 658.20 190.39 C 650.08 190.40 641.96 190.39 633.84 190.40 C 625.70 190.39 617.55 190.39 609.41 190.40 C 601.30 190.39 593.20 190.42 585.10 190.38 C 585.06 157.94 585.13 125.50 585.05 93.05 Z" />
<path fill="#e59947" opacity="1.00" d=" M 682.82 300.06 C 698.99 300.02 715.17 300.09 731.35 299.99 C 731.34 312.24 731.34 324.48 731.35 336.73 C 723.21 336.72 715.07 336.72 706.93 336.72 C 706.91 328.60 706.98 320.48 706.90 312.36 C 698.87 312.34 690.85 312.37 682.82 312.35 C 682.81 308.25 682.81 304.15 682.82 300.06 Z" />
</g>
<g id="#b07e64ff">
<path fill="#b07e64" opacity="1.00" d=" M 292.55 141.71 C 341.33 141.70 390.12 141.68 438.90 141.72 C 438.94 149.84 438.87 157.97 438.93 166.10 C 447.03 166.15 455.12 166.10 463.22 166.12 C 463.22 182.39 463.21 198.65 463.22 214.92 C 463.21 239.28 463.26 263.64 463.19 288.00 C 459.10 288.00 455.02 288.00 450.93 288.00 C 446.94 287.99 442.95 288.00 438.96 288.00 C 430.77 288.00 422.59 288.00 414.40 288.00 C 414.41 271.74 414.39 255.49 414.41 239.23 C 406.31 239.20 398.21 239.23 390.12 239.22 C 390.08 231.12 390.17 223.03 390.08 214.94 C 373.78 214.92 357.49 214.82 341.19 214.99 C 341.17 223.07 341.20 231.14 341.19 239.22 C 333.15 239.22 325.11 239.21 317.07 239.22 C 317.03 255.48 317.06 271.74 317.05 288.00 C 308.88 288.00 300.70 288.00 292.53 288.00 C 284.38 287.99 276.22 288.02 268.06 288.00 C 268.06 247.37 268.04 206.73 268.07 166.10 C 276.22 166.12 284.37 166.16 292.51 166.08 C 292.57 157.96 292.50 149.83 292.55 141.71 M 292.53 190.42 C 292.54 198.58 292.52 206.75 292.54 214.91 C 300.71 214.91 308.88 214.92 317.05 214.91 C 325.10 214.92 333.14 214.92 341.19 214.90 C 341.11 206.73 341.34 198.55 341.08 190.39 C 333.06 190.42 325.05 190.38 317.04 190.41 C 308.87 190.40 300.70 190.38 292.53 190.42 M 390.14 190.40 C 390.07 198.57 390.12 206.74 390.11 214.91 C 398.21 214.91 406.30 214.92 414.40 214.90 C 422.57 214.93 430.73 214.92 438.91 214.91 C 438.91 206.74 438.93 198.57 438.90 190.40 C 430.73 190.40 422.56 190.38 414.39 190.41 C 406.31 190.38 398.22 190.41 390.14 190.40 Z" />
<path fill="#b07e64" opacity="1.00" d=" M 194.94 288.01 C 199.04 287.99 203.14 288.00 207.23 288.00 C 215.36 288.00 223.49 288.00 231.62 288.00 C 235.72 288.00 239.83 288.00 243.94 288.00 C 243.95 312.36 243.96 336.72 243.94 361.09 C 239.83 361.09 235.73 361.09 231.62 361.08 C 223.49 361.09 215.36 361.09 207.24 361.08 C 203.14 361.08 199.04 361.10 194.94 361.07 C 194.93 336.72 194.92 312.37 194.94 288.01 Z" />
<path fill="#b07e64" opacity="1.00" d=" M 438.92 336.73 C 442.92 336.72 446.92 336.72 450.93 336.73 C 463.15 336.73 475.37 336.72 487.59 336.73 C 487.56 361.10 487.58 385.47 487.58 409.84 C 475.36 409.85 463.15 409.84 450.93 409.85 C 446.92 409.85 442.92 409.85 438.92 409.84 C 438.91 401.73 438.91 393.62 438.92 385.51 C 447.04 385.41 455.18 385.75 463.29 385.34 C 463.13 377.26 463.27 369.18 463.21 361.10 C 455.11 361.06 447.01 361.10 438.92 361.09 C 438.91 352.97 438.91 344.85 438.92 336.73 Z" />
</g>
<g id="#f2dbbdff">
<path fill="#f2dbbd" opacity="1.00" d=" M 682.84 141.72 C 699.00 141.68 715.16 141.68 731.32 141.72 C 731.40 149.84 731.29 157.97 731.37 166.10 C 739.55 166.15 747.74 166.09 755.93 166.13 C 755.99 174.21 755.88 182.29 755.98 190.38 C 764.00 190.43 772.02 190.39 780.05 190.39 C 780.05 214.79 780.04 239.19 780.05 263.58 C 780.05 271.72 780.06 279.86 780.05 288.00 C 772.01 288.01 763.98 287.99 755.95 288.00 C 747.75 288.00 739.55 288.00 731.35 288.00 C 715.17 288.00 699.00 288.00 682.83 288.00 C 674.62 288.00 666.41 288.00 658.20 288.00 C 650.09 288.00 641.99 288.00 633.88 288.00 C 617.61 288.00 601.34 288.00 585.08 288.00 C 585.10 263.64 585.07 239.28 585.09 214.92 C 585.09 206.74 585.08 198.56 585.10 190.38 C 593.20 190.42 601.30 190.39 609.41 190.40 C 609.68 198.56 609.36 206.72 609.59 214.88 C 617.68 214.96 625.76 214.87 633.84 214.91 C 641.96 214.92 650.08 214.92 658.21 214.91 C 658.20 206.74 658.20 198.56 658.20 190.39 C 658.21 182.30 658.18 174.22 658.21 166.13 C 666.40 166.08 674.60 166.17 682.80 166.09 C 682.86 157.97 682.77 149.84 682.84 141.72 M 706.93 190.41 C 706.92 198.57 706.92 206.74 706.93 214.91 C 715.07 214.92 723.21 214.93 731.35 214.90 C 739.54 214.89 747.73 214.94 755.92 214.88 C 756.01 206.80 755.88 198.72 756.00 190.64 C 747.80 190.08 739.56 190.55 731.35 190.41 C 723.21 190.39 715.07 190.40 706.93 190.41 M 658.29 239.28 C 658.07 247.37 658.07 255.48 658.29 263.57 C 674.46 263.71 690.62 263.62 706.79 263.63 C 707.02 255.50 707.11 247.36 706.80 239.23 C 690.63 239.21 674.45 239.10 658.29 239.28 Z" />
<path fill="#f2dbbd" opacity="1.00" d=" M 804.55 288.00 C 808.63 288.00 812.70 288.00 816.78 288.00 C 824.87 288.00 832.96 288.00 841.05 288.00 C 845.09 288.00 849.14 288.00 853.18 288.01 C 853.19 308.35 853.19 328.70 853.18 349.04 C 849.12 349.05 845.06 349.05 841.01 349.05 C 828.86 349.05 816.71 349.05 804.56 349.05 C 804.53 328.70 804.53 308.35 804.55 288.00 Z" />
<path fill="#f2dbbd" opacity="1.00" d=" M 658.20 300.06 C 666.40 300.06 674.61 300.05 682.82 300.06 C 682.81 304.15 682.81 308.25 682.82 312.35 C 674.62 312.34 666.41 312.39 658.21 312.33 C 658.18 308.24 658.19 304.15 658.20 300.06 Z" />
<path fill="#f2dbbd" opacity="1.00" d=" M 560.74 336.73 C 572.88 336.73 585.03 336.73 597.19 336.73 C 597.19 344.85 597.19 352.97 597.19 361.08 C 593.15 361.08 589.12 361.08 585.09 361.09 C 585.07 369.23 585.08 377.38 585.09 385.52 C 589.11 385.52 593.14 385.52 597.17 385.52 C 597.20 393.63 597.19 401.74 597.19 409.85 C 585.04 409.84 572.89 409.84 560.74 409.85 C 560.72 385.47 560.72 361.10 560.74 336.73 Z" />
</g>
<g id="#b4b4b4ff">
<path fill="#b4b4b4" opacity="1.00" d=" M 780.05 166.12 C 804.42 166.11 828.79 166.12 853.16 166.12 C 853.24 174.20 853.15 182.28 853.21 190.37 C 857.29 190.39 861.38 190.37 865.47 190.43 C 865.55 214.81 865.52 239.19 865.48 263.57 C 857.33 263.58 849.17 263.57 841.02 263.58 C 828.88 263.58 816.75 263.58 804.62 263.58 C 796.43 263.58 788.24 263.57 780.05 263.58 C 780.04 239.19 780.05 214.79 780.05 190.39 C 780.06 182.30 780.05 174.21 780.05 166.12 Z" />
<path fill="#b4b4b4" opacity="1.00" d=" M 170.88 190.40 C 195.23 190.38 219.58 190.41 243.93 190.39 C 243.96 206.67 243.94 222.94 243.94 239.22 C 239.86 239.22 235.78 239.22 231.70 239.22 C 231.46 231.19 231.71 223.17 231.59 215.14 C 211.44 214.50 191.26 215.16 171.11 214.83 C 170.49 206.70 170.91 198.55 170.88 190.40 Z" />
<path fill="#b4b4b4" opacity="1.00" d=" M 438.96 288.00 C 442.95 288.00 446.94 287.99 450.93 288.00 C 450.92 292.02 450.93 296.03 450.93 300.05 C 450.93 312.28 450.93 324.50 450.93 336.73 C 446.92 336.72 442.92 336.72 438.92 336.73 C 434.88 336.72 430.85 336.72 426.83 336.74 C 426.79 344.85 426.82 352.97 426.81 361.09 C 426.81 369.23 426.81 377.38 426.81 385.52 C 426.82 393.62 426.80 401.73 426.82 409.83 C 430.85 409.85 434.88 409.84 438.92 409.84 C 442.92 409.85 446.92 409.85 450.93 409.85 C 450.93 426.17 450.92 442.49 450.93 458.81 C 446.93 458.81 442.92 458.81 438.92 458.81 C 438.86 450.63 439.09 442.44 438.81 434.26 C 430.69 433.85 422.50 434.86 414.42 433.76 C 414.23 421.78 414.67 409.80 414.24 397.84 C 406.20 397.52 398.16 397.77 390.12 397.73 C 390.12 393.66 390.12 389.59 390.12 385.52 C 394.14 385.52 398.15 385.51 402.17 385.51 C 406.24 385.52 410.31 385.52 414.39 385.50 C 414.41 377.36 414.39 369.22 414.40 361.08 C 414.47 344.87 414.27 328.67 414.48 312.46 C 422.60 312.10 430.73 312.68 438.84 312.19 C 439.08 304.13 438.83 296.06 438.96 288.00 Z" />
<path fill="#b4b4b4" opacity="1.00" d=" M 621.70 336.73 C 629.82 336.72 637.95 336.72 646.08 336.73 C 646.13 344.84 646.09 352.96 646.12 361.08 C 646.12 369.23 646.10 377.37 646.12 385.52 C 650.14 385.51 654.16 385.51 658.19 385.52 C 662.22 385.51 666.26 385.52 670.29 385.52 C 670.56 398.70 670.29 411.89 670.45 425.08 C 670.51 428.05 670.34 431.03 670.08 433.99 C 645.80 434.48 621.48 434.16 597.19 434.15 C 597.18 426.05 597.19 417.95 597.19 409.85 C 597.19 401.74 597.20 393.63 597.17 385.52 C 605.34 385.50 613.51 385.53 621.68 385.50 C 621.71 377.35 621.69 369.21 621.70 361.06 C 621.69 352.95 621.69 344.84 621.70 336.73 Z" />
</g>
<g id="#f2f2f2ff">
<path fill="#f2f2f2" opacity="1.00" d=" M 853.16 166.12 C 857.28 166.11 861.39 166.11 865.51 166.13 C 865.52 174.22 865.50 182.30 865.52 190.39 C 869.57 190.40 873.63 190.40 877.70 190.40 C 877.68 214.79 877.71 239.18 877.68 263.57 C 873.61 263.58 869.55 263.58 865.48 263.57 C 865.52 239.19 865.55 214.81 865.47 190.43 C 861.38 190.37 857.29 190.39 853.21 190.37 C 853.15 182.28 853.24 174.20 853.16 166.12 Z" />
<path fill="#f2f2f2" opacity="1.00" d=" M 158.40 214.94 C 162.52 214.87 166.64 214.86 170.76 215.02 C 170.89 223.09 170.73 231.15 170.82 239.22 C 166.68 239.22 162.54 239.22 158.41 239.22 C 158.38 231.12 158.40 223.03 158.40 214.94 Z" />
<path fill="#f2f2f2" opacity="1.00" d=" M 670.44 434.31 C 674.56 434.15 678.69 434.15 682.81 434.20 C 682.81 442.41 682.81 450.62 682.82 458.83 C 678.62 458.79 674.43 458.82 670.24 458.80 C 670.61 450.64 670.25 442.47 670.44 434.31 Z" />
</g>
<g id="#cfcfcfff">
<path fill="#cfcfcf" opacity="1.00" d=" M 158.41 190.41 C 162.56 190.39 166.72 190.40 170.88 190.40 C 170.91 198.55 170.49 206.70 171.11 214.83 C 191.26 215.16 211.44 214.50 231.59 215.14 C 231.71 223.17 231.46 231.19 231.70 239.22 C 223.55 239.22 215.40 239.22 207.25 239.22 C 195.11 239.21 182.96 239.22 170.82 239.22 C 170.73 231.15 170.89 223.09 170.76 215.02 C 166.64 214.86 162.52 214.87 158.40 214.94 C 158.41 206.76 158.39 198.59 158.41 190.41 Z" />
<path fill="#cfcfcf" opacity="1.00" d=" M 414.40 288.00 C 422.59 288.00 430.77 288.00 438.96 288.00 C 438.83 296.06 439.08 304.13 438.84 312.19 C 430.73 312.68 422.60 312.10 414.48 312.46 C 414.27 328.67 414.47 344.87 414.40 361.08 C 410.32 361.08 406.24 361.09 402.16 361.09 C 398.14 361.09 394.13 361.08 390.12 361.09 C 390.12 344.84 390.10 328.60 390.13 312.35 C 398.22 312.34 406.30 312.37 414.39 312.34 C 414.41 308.24 414.40 304.15 414.40 300.05 C 414.40 296.03 414.40 292.02 414.40 288.00 Z" />
<path fill="#cfcfcf" opacity="1.00" d=" M 646.08 336.73 C 650.10 336.73 654.12 336.73 658.14 336.73 C 662.22 336.72 666.30 336.73 670.39 336.73 C 670.40 344.85 670.40 352.97 670.39 361.08 C 666.32 361.08 662.25 361.09 658.18 361.09 C 654.15 361.08 650.13 361.09 646.12 361.08 C 646.09 352.96 646.13 344.84 646.08 336.73 Z" />
<path fill="#cfcfcf" opacity="1.00" d=" M 670.29 385.52 C 674.46 385.52 678.64 385.51 682.82 385.52 C 682.81 389.63 682.81 393.75 682.81 397.86 C 682.81 409.98 682.81 422.09 682.81 434.20 C 678.69 434.15 674.56 434.15 670.44 434.31 C 670.25 442.47 670.61 450.64 670.24 458.80 C 650.02 458.82 629.79 458.80 609.57 458.81 C 605.44 458.82 601.31 458.78 597.19 458.83 C 597.19 450.60 597.19 442.38 597.19 434.15 C 621.48 434.16 645.80 434.48 670.08 433.99 C 670.34 431.03 670.51 428.05 670.45 425.08 C 670.29 411.89 670.56 398.70 670.29 385.52 Z" />
<path fill="#cfcfcf" opacity="1.00" d=" M 390.12 397.73 C 398.16 397.77 406.20 397.52 414.24 397.84 C 414.67 409.80 414.23 421.78 414.42 433.76 C 422.50 434.86 430.69 433.85 438.81 434.26 C 439.09 442.44 438.86 450.63 438.92 458.81 C 430.74 458.80 422.57 458.81 414.39 458.81 C 414.41 450.61 414.40 442.40 414.41 434.20 C 406.31 434.20 398.22 434.21 390.13 434.20 C 390.10 422.04 390.13 409.89 390.12 397.73 Z" />
</g>
<g id="#ffffffff">
<path fill="#ffffff" opacity="1.00" d=" M 292.53 190.42 C 300.70 190.38 308.87 190.40 317.04 190.41 C 317.05 198.57 317.05 206.74 317.05 214.91 C 308.88 214.92 300.71 214.91 292.54 214.91 C 292.52 206.75 292.54 198.58 292.53 190.42 Z" />
<path fill="#ffffff" opacity="1.00" d=" M 414.39 190.41 C 422.56 190.38 430.73 190.40 438.90 190.40 C 438.93 198.57 438.91 206.74 438.91 214.91 C 430.73 214.92 422.57 214.93 414.40 214.90 C 414.40 206.74 414.40 198.58 414.39 190.41 Z" />
</g>
<g id="#5835a2ff">
<path fill="#5835a2" opacity="1.00" d=" M 317.04 190.41 C 325.05 190.38 333.06 190.42 341.08 190.39 C 341.34 198.55 341.11 206.73 341.19 214.90 C 333.14 214.92 325.10 214.92 317.05 214.91 C 317.05 206.74 317.05 198.57 317.04 190.41 Z" />
<path fill="#5835a2" opacity="1.00" d=" M 390.14 190.40 C 398.22 190.41 406.31 190.38 414.39 190.41 C 414.40 198.58 414.40 206.74 414.40 214.90 C 406.30 214.92 398.21 214.91 390.11 214.91 C 390.12 206.74 390.07 198.57 390.14 190.40 Z" />
</g>
<g id="#995a3cff">
<path fill="#995a3c" opacity="1.00" d=" M 475.37 190.41 C 487.57 190.38 499.77 190.40 511.98 190.39 C 512.02 206.66 512.00 222.94 511.98 239.21 C 499.77 239.25 487.57 239.19 475.36 239.24 C 475.34 247.35 475.34 255.46 475.36 263.57 C 491.59 263.59 507.82 263.57 524.06 263.58 C 524.06 271.72 524.05 279.86 524.05 288.00 C 503.77 288.00 483.48 288.00 463.19 288.00 C 463.26 263.64 463.21 239.28 463.22 214.92 C 467.26 214.92 471.30 214.92 475.34 214.90 C 475.39 206.73 475.32 198.57 475.37 190.41 Z" />
<path fill="#995a3c" opacity="1.00" d=" M 243.94 288.00 C 251.98 288.00 260.02 288.00 268.06 288.00 C 276.22 288.02 284.38 287.99 292.53 288.00 C 292.52 312.35 292.54 336.71 292.53 361.06 C 276.33 361.12 260.13 361.07 243.94 361.09 C 243.96 336.72 243.95 312.36 243.94 288.00 Z" />
<path fill="#995a3c" opacity="1.00" d=" M 487.59 336.73 C 499.74 336.72 511.90 336.72 524.05 336.73 C 524.05 361.10 524.07 385.47 524.04 409.84 C 511.88 409.86 499.73 409.85 487.58 409.84 C 487.58 385.47 487.56 361.10 487.59 336.73 Z" />
</g>
<g id="#cfa674ff">
<path fill="#cfa674" opacity="1.00" d=" M 536.40 190.44 C 548.57 190.33 560.74 190.42 572.91 190.39 C 573.24 198.55 572.90 206.72 573.08 214.88 C 577.08 214.95 581.08 214.95 585.09 214.92 C 585.07 239.28 585.10 263.64 585.08 288.00 C 576.97 288.00 568.86 288.00 560.75 288.00 C 560.66 271.75 560.81 255.50 560.69 239.25 C 552.59 239.07 544.48 239.39 536.39 239.11 C 536.33 222.88 536.30 206.66 536.40 190.44 Z" />
<path fill="#cfa674" opacity="1.00" d=" M 658.20 288.00 C 666.41 288.00 674.62 288.00 682.83 288.00 C 682.81 292.02 682.81 296.04 682.82 300.06 C 674.61 300.05 666.40 300.06 658.20 300.06 C 658.19 296.04 658.20 292.02 658.20 288.00 Z" />
<path fill="#cfa674" opacity="1.00" d=" M 755.95 288.00 C 763.98 287.99 772.01 288.01 780.05 288.00 C 788.21 288.00 796.38 288.00 804.55 288.00 C 804.53 308.35 804.53 328.70 804.56 349.05 C 788.35 349.04 772.15 349.05 755.95 349.04 C 755.94 328.69 755.94 308.35 755.95 288.00 Z" />
<path fill="#cfa674" opacity="1.00" d=" M 524.05 336.73 C 536.28 336.74 548.51 336.73 560.74 336.73 C 560.72 361.10 560.72 385.47 560.74 409.85 C 548.50 409.84 536.27 409.85 524.04 409.84 C 524.07 385.47 524.05 361.10 524.05 336.73 Z" />
</g>
<g id="#fbfbfbff">
<path fill="#fbfbfb" opacity="1.00" d=" M 609.41 190.40 C 617.55 190.39 625.70 190.39 633.84 190.40 C 633.84 198.57 633.84 206.74 633.84 214.91 C 625.76 214.87 617.68 214.96 609.59 214.88 C 609.36 206.72 609.68 198.56 609.41 190.40 Z" />
<path fill="#fbfbfb" opacity="1.00" d=" M 731.35 190.41 C 739.56 190.55 747.80 190.08 756.00 190.64 C 755.88 198.72 756.01 206.80 755.92 214.88 C 747.73 214.94 739.54 214.89 731.35 214.90 C 731.35 206.74 731.35 198.57 731.35 190.41 Z" />
</g>
<g id="#236224ff">
<path fill="#236224" opacity="1.00" d=" M 633.84 190.40 C 641.96 190.39 650.08 190.40 658.20 190.39 C 658.20 198.56 658.20 206.74 658.21 214.91 C 650.08 214.92 641.96 214.92 633.84 214.91 C 633.84 206.74 633.84 198.57 633.84 190.40 Z" />
<path fill="#236224" opacity="1.00" d=" M 706.93 190.41 C 715.07 190.40 723.21 190.39 731.35 190.41 C 731.35 198.57 731.35 206.74 731.35 214.90 C 723.21 214.93 715.07 214.92 706.93 214.91 C 706.92 206.74 706.92 198.57 706.93 190.41 Z" />
</g>
<g id="#6a4030ff">
<path fill="#6a4030" opacity="1.00" d=" M 341.19 214.99 C 357.49 214.82 373.78 214.92 390.08 214.94 C 390.17 223.03 390.08 231.12 390.12 239.22 C 373.81 239.22 357.50 239.22 341.19 239.22 C 341.20 231.14 341.17 223.07 341.19 214.99 Z" />
</g>
<g id="#4b3407ff">
<path fill="#4b3407" opacity="1.00" d=" M 207.25 239.22 C 215.40 239.22 223.55 239.22 231.70 239.22 C 235.78 239.22 239.86 239.22 243.94 239.22 C 243.95 255.48 243.94 271.74 243.94 288.00 C 239.83 288.00 235.72 288.00 231.62 288.00 C 231.49 275.81 231.68 263.60 231.53 251.41 C 223.44 251.24 215.35 251.45 207.26 251.30 C 207.20 247.27 207.18 243.24 207.25 239.22 Z" />
<path fill="#4b3407" opacity="1.00" d=" M 804.62 263.58 C 816.75 263.58 828.88 263.58 841.02 263.58 C 841.14 267.70 841.12 271.82 841.06 275.94 C 832.97 275.99 824.88 275.83 816.80 276.02 C 816.68 280.01 816.69 284.00 816.78 288.00 C 812.70 288.00 808.63 288.00 804.55 288.00 C 804.56 279.86 804.46 271.72 804.62 263.58 Z" />
<path fill="#4b3407" opacity="1.00" d=" M 804.56 349.05 C 816.71 349.05 828.86 349.05 841.01 349.05 C 841.15 353.05 841.12 357.07 841.06 361.08 C 832.97 361.12 824.89 361.00 816.80 361.13 C 816.66 369.22 816.70 377.33 816.78 385.43 C 824.87 385.57 832.97 385.56 841.07 385.41 L 841.07 385.65 C 841.08 393.70 841.10 401.76 841.06 409.82 C 820.74 409.85 800.42 409.87 780.10 409.80 C 780.01 401.76 780.04 393.71 780.08 385.67 C 788.22 385.30 796.37 385.68 804.51 385.50 C 804.62 373.35 804.48 361.20 804.56 349.05 Z" />
<path fill="#4b3407" opacity="1.00" d=" M 231.62 361.08 C 235.73 361.09 239.83 361.09 243.94 361.09 C 243.95 369.17 243.97 377.25 243.92 385.33 C 239.82 385.64 235.69 385.71 231.60 385.25 C 231.57 377.19 231.54 369.14 231.62 361.08 Z" />
<path fill="#4b3407" opacity="1.00" d=" M 402.16 361.09 C 406.24 361.09 410.32 361.08 414.40 361.08 C 414.39 369.22 414.41 377.36 414.39 385.50 C 410.31 385.52 406.24 385.52 402.17 385.51 C 402.21 377.37 402.23 369.23 402.16 361.09 Z" />
<path fill="#4b3407" opacity="1.00" d=" M 426.81 361.09 C 430.85 361.09 434.88 361.09 438.92 361.09 C 447.01 361.10 455.11 361.06 463.21 361.10 C 463.27 369.18 463.13 377.26 463.29 385.34 C 455.18 385.75 447.04 385.41 438.92 385.51 C 434.88 385.50 430.85 385.50 426.81 385.52 C 426.81 377.38 426.81 369.23 426.81 361.09 Z" />
<path fill="#4b3407" opacity="1.00" d=" M 585.09 361.09 C 589.12 361.08 593.15 361.08 597.19 361.08 C 601.34 361.09 605.50 361.09 609.65 361.08 C 613.67 361.08 617.68 361.08 621.70 361.06 C 621.69 369.21 621.71 377.35 621.68 385.50 C 613.51 385.53 605.34 385.50 597.17 385.52 C 593.14 385.52 589.11 385.52 585.09 385.52 C 585.08 377.38 585.07 369.23 585.09 361.09 Z" />
<path fill="#4b3407" opacity="1.00" d=" M 646.12 361.08 C 650.13 361.09 654.15 361.08 658.18 361.09 C 658.24 369.23 658.23 377.37 658.19 385.52 C 654.16 385.51 650.14 385.51 646.12 385.52 C 646.10 377.37 646.12 369.23 646.12 361.08 Z" />
</g>
<g id="#bc645aff">
<path fill="#bc645a" opacity="1.00" d=" M 341.19 239.22 C 357.50 239.22 373.81 239.22 390.12 239.22 C 390.10 247.33 390.15 255.44 390.09 263.56 C 373.80 263.60 357.51 263.58 341.21 263.57 C 341.15 255.45 341.20 247.33 341.19 239.22 Z" />
</g>
<g id="#efbbb1ff">
<path fill="#efbbb1" opacity="1.00" d=" M 658.29 239.28 C 674.45 239.10 690.63 239.21 706.80 239.23 C 707.11 247.36 707.02 255.50 706.79 263.63 C 690.62 263.62 674.46 263.71 658.29 263.57 C 658.07 255.48 658.07 247.37 658.29 239.28 Z" />
</g>
<g id="#7c5d24ff">
<path fill="#7c5d24" opacity="1.00" d=" M 207.26 251.30 C 215.35 251.45 223.44 251.24 231.53 251.41 C 231.68 263.60 231.49 275.81 231.62 288.00 C 223.49 288.00 215.36 288.00 207.23 288.00 C 207.22 275.77 207.17 263.53 207.26 251.30 Z" />
<path fill="#7c5d24" opacity="1.00" d=" M 816.80 276.02 C 824.88 275.83 832.97 275.99 841.06 275.94 C 841.11 279.96 841.12 283.98 841.05 288.00 C 832.96 288.00 824.87 288.00 816.78 288.00 C 816.69 284.00 816.68 280.01 816.80 276.02 Z" />
<path fill="#7c5d24" opacity="1.00" d=" M 207.24 361.08 C 215.36 361.09 223.49 361.09 231.62 361.08 C 231.54 369.14 231.57 377.19 231.60 385.25 L 231.60 385.54 C 223.48 385.49 215.37 385.53 207.25 385.51 C 207.19 377.37 207.21 369.22 207.24 361.08 Z" />
<path fill="#7c5d24" opacity="1.00" d=" M 377.85 361.10 C 381.94 361.08 386.02 361.08 390.12 361.09 C 394.13 361.08 398.14 361.09 402.16 361.09 C 402.23 369.23 402.21 377.37 402.17 385.51 C 398.15 385.51 394.14 385.52 390.12 385.52 C 386.03 385.51 381.94 385.50 377.85 385.51 C 377.84 377.37 377.84 369.24 377.85 361.10 Z" />
<path fill="#7c5d24" opacity="1.00" d=" M 658.18 361.09 C 662.25 361.09 666.32 361.08 670.39 361.08 C 674.53 361.08 678.67 361.08 682.82 361.09 C 682.81 369.23 682.82 377.37 682.82 385.52 C 678.64 385.51 674.46 385.52 670.29 385.52 C 666.26 385.52 662.22 385.51 658.19 385.52 C 658.23 377.37 658.24 369.23 658.18 361.09 Z" />
<path fill="#7c5d24" opacity="1.00" d=" M 816.80 361.13 C 824.89 361.00 832.97 361.12 841.06 361.08 C 841.11 369.19 841.10 377.30 841.07 385.41 C 832.97 385.56 824.87 385.57 816.78 385.43 C 816.70 377.33 816.66 369.22 816.80 361.13 Z" />
<path fill="#7c5d24" opacity="1.00" d=" M 841.07 385.65 C 849.20 385.36 857.35 385.55 865.49 385.54 C 865.53 393.64 865.55 401.74 865.48 409.85 C 857.34 409.82 849.20 409.88 841.06 409.82 C 841.10 401.76 841.08 393.70 841.07 385.65 Z" />
</g>
<g id="#006868ff">
<path fill="#006868" opacity="1.00" d=" M 292.53 288.00 C 300.70 288.00 308.88 288.00 317.05 288.00 C 349.50 288.00 381.95 288.00 414.40 288.00 C 414.40 292.02 414.40 296.03 414.40 300.05 C 381.95 300.07 349.51 300.03 317.07 300.08 C 317.01 320.40 317.05 340.73 317.05 361.05 C 308.87 361.10 300.70 361.08 292.53 361.06 C 292.54 336.71 292.52 312.35 292.53 288.00 Z" />
<path fill="#006868" opacity="1.00" d=" M 450.93 288.00 C 455.02 288.00 459.10 288.00 463.19 288.00 C 483.48 288.00 503.77 288.00 524.05 288.00 C 524.06 296.08 524.05 304.15 524.06 312.23 C 524.04 320.39 524.05 328.56 524.05 336.73 C 511.90 336.72 499.74 336.72 487.59 336.73 C 487.55 324.52 487.60 312.31 487.57 300.11 C 475.36 299.98 463.14 300.10 450.93 300.05 C 450.93 296.03 450.92 292.02 450.93 288.00 Z" />
<path fill="#006868" opacity="1.00" d=" M 426.83 336.74 C 430.85 336.72 434.88 336.72 438.92 336.73 C 438.91 344.85 438.91 352.97 438.92 361.09 C 434.88 361.09 430.85 361.09 426.81 361.09 C 426.82 352.97 426.79 344.85 426.83 336.74 Z" />
<path fill="#006868" opacity="1.00" d=" M 426.81 385.52 C 430.85 385.50 434.88 385.50 438.92 385.51 C 438.91 393.62 438.91 401.73 438.92 409.84 C 434.88 409.84 430.85 409.85 426.82 409.83 C 426.80 401.73 426.82 393.62 426.81 385.52 Z" />
</g>
<g id="#4f8448ff">
<path fill="#4f8448" opacity="1.00" d=" M 524.05 288.00 C 536.28 288.00 548.52 288.00 560.75 288.00 C 568.86 288.00 576.97 288.00 585.08 288.00 C 601.34 288.00 617.61 288.00 633.88 288.00 C 633.86 292.02 633.85 296.04 633.87 300.06 C 625.77 300.09 617.67 300.00 609.58 300.09 C 609.46 312.30 609.52 324.52 609.56 336.73 C 605.43 336.72 601.31 336.72 597.19 336.73 C 597.18 328.57 597.19 320.42 597.18 312.26 C 597.20 308.21 597.22 304.15 597.13 300.10 C 585.02 300.02 572.90 300.03 560.78 300.10 C 560.69 304.17 560.69 308.24 560.74 312.31 C 548.51 312.30 536.28 312.41 524.06 312.23 C 524.05 304.15 524.06 296.08 524.05 288.00 Z" />
<path fill="#4f8448" opacity="1.00" d=" M 731.35 288.00 C 739.55 288.00 747.75 288.00 755.95 288.00 C 755.94 308.35 755.94 328.69 755.95 349.04 C 747.75 349.02 739.54 349.09 731.35 349.00 C 731.36 344.91 731.35 340.82 731.35 336.73 C 731.34 324.48 731.34 312.24 731.35 299.99 C 731.35 295.99 731.36 292.00 731.35 288.00 Z" />
</g>
<g id="#636449ff">
<path fill="#636449" opacity="1.00" d=" M 633.88 288.00 C 641.99 288.00 650.09 288.00 658.20 288.00 C 658.20 292.02 658.19 296.04 658.20 300.06 C 650.09 300.05 641.98 300.05 633.87 300.06 C 633.85 296.04 633.86 292.02 633.88 288.00 Z" />
<path fill="#636449" opacity="1.00" d=" M 524.06 312.23 C 536.28 312.41 548.51 312.30 560.74 312.31 C 560.72 320.45 560.73 328.59 560.74 336.73 C 548.51 336.73 536.28 336.74 524.05 336.73 C 524.05 328.56 524.04 320.39 524.06 312.23 Z" />
</g>
<g id="#00afafff">
<path fill="#00afaf" opacity="1.00" d=" M 317.07 300.08 C 349.51 300.03 381.95 300.07 414.40 300.05 C 414.40 304.15 414.41 308.24 414.39 312.34 C 406.30 312.37 398.22 312.34 390.13 312.35 C 390.10 328.60 390.12 344.84 390.12 361.09 C 386.02 361.08 381.94 361.08 377.85 361.10 C 377.84 369.24 377.84 377.37 377.85 385.51 C 357.59 385.53 337.33 385.48 317.07 385.54 C 317.02 377.37 317.06 369.21 317.05 361.05 C 317.05 340.73 317.01 320.40 317.07 300.08 Z" />
<path fill="#00afaf" opacity="1.00" d=" M 450.93 300.05 C 463.14 300.10 475.36 299.98 487.57 300.11 C 487.60 312.31 487.55 324.52 487.59 336.73 C 475.37 336.72 463.15 336.73 450.93 336.73 C 450.93 324.50 450.93 312.28 450.93 300.05 Z" />
</g>
<g id="#7ab577ff">
<path fill="#7ab577" opacity="1.00" d=" M 560.78 300.10 C 572.90 300.03 585.02 300.02 597.13 300.10 C 597.22 304.15 597.20 308.21 597.18 312.26 C 585.03 312.42 572.89 312.33 560.74 312.31 C 560.69 308.24 560.69 304.17 560.78 300.10 Z" />
<path fill="#7ab577" opacity="1.00" d=" M 609.58 300.09 C 617.67 300.00 625.77 300.09 633.87 300.06 C 633.78 304.11 633.79 308.16 633.96 312.21 C 642.00 312.76 650.08 311.82 658.11 312.66 C 658.33 320.68 658.19 328.71 658.14 336.73 C 654.12 336.73 650.10 336.73 646.08 336.73 C 637.95 336.72 629.82 336.72 621.70 336.73 C 617.65 336.73 613.60 336.72 609.56 336.73 C 609.52 324.52 609.46 312.30 609.58 300.09 Z" />
<path fill="#7ab577" opacity="1.00" d=" M 682.82 312.35 C 690.85 312.37 698.87 312.34 706.90 312.36 C 706.98 320.48 706.91 328.60 706.93 336.72 C 698.91 336.73 690.88 336.73 682.86 336.73 C 682.79 328.60 682.84 320.48 682.82 312.35 Z" />
<path fill="#7ab577" opacity="1.00" d=" M 682.82 361.09 C 698.99 361.08 715.15 361.09 731.32 361.08 C 731.37 377.34 731.36 393.59 731.33 409.85 C 723.20 409.82 715.07 409.87 706.94 409.83 C 706.90 401.73 706.95 393.62 706.92 385.52 C 698.88 385.50 690.85 385.51 682.82 385.52 C 682.82 377.37 682.81 369.23 682.82 361.09 Z" />
</g>
<g id="#8c8d68ff">
<path fill="#8c8d68" opacity="1.00" d=" M 633.87 300.06 C 641.98 300.05 650.09 300.05 658.20 300.06 C 658.19 304.15 658.18 308.24 658.21 312.33 C 666.41 312.39 674.62 312.34 682.82 312.35 C 682.84 320.48 682.79 328.60 682.86 336.73 C 678.70 336.72 674.54 336.73 670.39 336.73 C 666.30 336.73 662.22 336.72 658.14 336.73 C 658.19 328.71 658.33 320.68 658.11 312.66 C 650.08 311.82 642.00 312.76 633.96 312.21 C 633.79 308.16 633.78 304.11 633.87 300.06 Z" />
<path fill="#8c8d68" opacity="1.00" d=" M 560.74 312.31 C 572.89 312.33 585.03 312.42 597.18 312.26 C 597.19 320.42 597.18 328.57 597.19 336.73 C 585.03 336.73 572.88 336.73 560.74 336.73 C 560.73 328.59 560.72 320.45 560.74 312.31 Z" />
</g>
<g id="#051c05ff">
<path fill="#051c05" opacity="1.00" d=" M 597.19 336.73 C 601.31 336.72 605.43 336.72 609.56 336.73 C 609.58 344.85 609.43 352.97 609.65 361.08 C 605.50 361.09 601.34 361.09 597.19 361.08 C 597.19 352.97 597.19 344.85 597.19 336.73 Z" />
</g>
<g id="#1a3f19ff">
<path fill="#1a3f19" opacity="1.00" d=" M 609.56 336.73 C 613.60 336.72 617.65 336.73 621.70 336.73 C 621.69 344.84 621.69 352.95 621.70 361.06 C 617.68 361.08 613.67 361.08 609.65 361.08 C 609.43 352.97 609.58 344.85 609.56 336.73 Z" />
<path fill="#1a3f19" opacity="1.00" d=" M 670.39 336.73 C 674.54 336.73 678.70 336.72 682.86 336.73 C 690.88 336.73 698.91 336.73 706.93 336.72 C 715.07 336.72 723.21 336.72 731.35 336.73 C 731.35 340.82 731.36 344.91 731.35 349.00 C 731.32 353.03 731.32 357.05 731.32 361.08 C 715.15 361.09 698.99 361.08 682.82 361.09 C 678.67 361.08 674.53 361.08 670.39 361.08 C 670.40 352.97 670.40 344.85 670.39 336.73 Z" />
</g>
<g id="#302872ff">
<path fill="#302872" opacity="1.00" d=" M 317.07 385.54 C 337.33 385.48 357.59 385.53 377.85 385.51 C 381.94 385.50 386.03 385.51 390.12 385.52 C 390.12 389.59 390.12 393.66 390.12 397.73 C 386.06 397.69 382.00 397.70 377.95 397.72 C 357.65 397.74 337.36 397.68 317.06 397.75 C 317.03 393.68 317.03 389.60 317.07 385.54 Z" />
<path fill="#302872" opacity="1.00" d=" M 450.93 409.85 C 463.15 409.84 475.36 409.85 487.58 409.84 C 487.55 426.17 487.61 442.50 487.55 458.83 C 475.34 458.78 463.14 458.82 450.93 458.81 C 450.92 442.49 450.93 426.17 450.93 409.85 Z" />
</g>
<g id="#452d1eff">
<path fill="#452d1e" opacity="1.00" d=" M 682.82 385.52 C 690.85 385.51 698.88 385.50 706.92 385.52 C 706.95 393.62 706.90 401.73 706.94 409.83 C 715.07 409.87 723.20 409.82 731.33 409.85 C 731.34 413.92 731.32 417.99 731.25 422.07 C 719.20 421.98 707.14 422.36 695.10 421.94 C 694.55 413.96 695.27 405.96 694.80 397.98 C 690.81 397.64 686.81 397.65 682.81 397.86 C 682.81 393.75 682.81 389.63 682.82 385.52 Z" />
<path fill="#452d1e" opacity="1.00" d=" M 560.74 409.85 C 572.89 409.84 585.04 409.84 597.19 409.85 C 597.19 417.95 597.18 426.05 597.19 434.15 C 593.13 434.14 589.08 434.17 585.02 434.19 C 576.96 434.18 568.90 434.22 560.84 434.16 C 560.64 426.06 560.78 417.95 560.74 409.85 Z" />
</g>
<g id="#413791ff">
<path fill="#413791" opacity="1.00" d=" M 317.06 397.75 C 337.36 397.68 357.65 397.74 377.95 397.72 C 377.86 418.08 377.94 438.45 377.90 458.82 C 357.62 458.82 337.34 458.79 317.06 458.83 C 317.03 438.47 317.04 418.11 317.06 397.75 Z" />
</g>
<g id="#463aa5ff">
<path fill="#463aa5" opacity="1.00" d=" M 377.95 397.72 C 382.00 397.70 386.06 397.69 390.12 397.73 C 390.13 409.89 390.10 422.04 390.13 434.20 C 398.22 434.21 406.31 434.20 414.41 434.20 C 414.40 442.40 414.41 450.61 414.39 458.81 C 402.23 458.82 390.07 458.80 377.90 458.82 C 377.94 438.45 377.86 418.08 377.95 397.72 Z" />
</g>
<g id="#5d3d29ff">
<path fill="#5d3d29" opacity="1.00" d=" M 682.81 397.86 C 686.81 397.65 690.81 397.64 694.80 397.98 C 695.27 405.96 694.55 413.96 695.10 421.94 C 707.14 422.36 719.20 421.98 731.25 422.07 C 731.42 426.10 731.38 430.13 731.31 434.16 C 715.14 434.26 698.98 434.19 682.81 434.20 C 682.81 422.09 682.81 409.98 682.81 397.86 Z" />
</g>
<g id="#3f3f3fff">
<path fill="#3f3f3f" opacity="1.00" d=" M 560.84 434.16 C 568.90 434.22 576.96 434.18 585.02 434.19 C 585.21 442.37 584.73 450.57 585.23 458.74 C 589.21 458.96 593.20 458.93 597.19 458.83 C 601.31 458.78 605.44 458.82 609.57 458.81 C 609.48 466.58 609.52 474.35 609.54 482.11 L 609.54 483.00 C 593.32 482.79 577.08 483.06 560.86 482.86 C 560.65 466.63 560.68 450.39 560.84 434.16 Z" />
<path fill="#3f3f3f" opacity="1.00" d=" M 438.92 458.81 C 442.92 458.81 446.93 458.81 450.93 458.81 C 463.14 458.82 475.34 458.78 487.55 458.83 C 487.67 466.81 487.56 474.79 487.63 482.77 C 471.40 483.12 455.17 482.85 438.94 482.90 C 438.88 474.87 438.91 466.84 438.92 458.81 Z" />
</g>
<g id="#313131ff">
<path fill="#313131" opacity="1.00" d=" M 585.02 434.19 C 589.08 434.17 593.13 434.14 597.19 434.15 C 597.19 442.38 597.19 450.60 597.19 458.83 C 593.20 458.93 589.21 458.96 585.23 458.74 C 584.73 450.57 585.21 442.37 585.02 434.19 Z" />
</g>
<g id="#555555ff">
<path fill="#555555" opacity="1.00" d=" M 682.81 434.20 C 698.98 434.19 715.14 434.26 731.31 434.16 C 731.39 442.40 731.35 450.65 731.33 458.89 C 715.16 458.87 698.99 459.00 682.82 458.83 C 682.81 450.62 682.81 442.41 682.81 434.20 Z" />
</g>
<g id="#5d5d5dff">
<path fill="#5d5d5d" opacity="1.00" d=" M 317.06 458.83 C 337.34 458.79 357.62 458.82 377.90 458.82 C 377.91 466.85 377.89 474.89 377.92 482.92 C 357.63 482.93 337.35 482.93 317.07 482.92 C 317.04 474.89 317.05 466.86 317.06 458.83 Z" />
</g>
<g id="#6b6b6bff">
<path fill="#6b6b6b" opacity="1.00" d=" M 377.90 458.82 C 390.07 458.80 402.23 458.82 414.39 458.81 C 422.57 458.81 430.74 458.80 438.92 458.81 C 438.91 466.84 438.88 474.87 438.94 482.90 C 418.60 482.97 398.26 482.92 377.92 482.92 C 377.89 474.89 377.91 466.85 377.90 458.82 Z" />
<path fill="#6b6b6b" opacity="1.00" d=" M 609.57 458.81 C 629.79 458.80 650.02 458.82 670.24 458.80 C 669.82 466.49 670.52 474.20 669.87 481.88 C 649.78 482.61 629.64 482.08 609.54 482.11 C 609.52 474.35 609.48 466.58 609.57 458.81 Z" />
</g>
<g id="#626262ff">
<path fill="#626262" opacity="1.00" d=" M 670.24 458.80 C 674.43 458.82 678.62 458.79 682.82 458.83 C 698.99 459.00 715.16 458.87 731.33 458.89 C 731.36 466.90 731.37 474.90 731.33 482.91 C 690.73 482.89 650.14 483.05 609.54 483.00 L 609.54 482.11 C 629.64 482.08 649.78 482.61 669.87 481.88 C 670.52 474.20 669.82 466.49 670.24 458.80 Z" />
</g>
</svg>
