<?xml version="1.0" encoding="UTF-8" ?>
<!DOCTYPE svg PUBLIC "-//W3C//DTD SVG 1.1//EN" "http://www.w3.org/Graphics/SVG/1.1/DTD/svg11.dtd">
<svg width="1024pt" height="576pt" viewBox="0 0 1024 576" version="1.1" xmlns="http://www.w3.org/2000/svg">
<g id="#242425ff">
</g>
<g id="#302872ff">
<path fill="#302872" opacity="1.00" d=" M 194.98 93.09 C 219.30 93.02 243.63 93.04 267.96 93.08 C 268.17 109.28 268.01 125.49 268.05 141.70 C 243.68 141.69 219.32 141.69 194.95 141.70 C 194.94 125.49 194.89 109.29 194.98 93.09 Z" />
<path fill="#302872" opacity="1.00" d=" M 219.34 288.09 C 235.57 287.87 251.81 288.07 268.04 288.00 C 276.21 288.00 284.37 288.00 292.54 288.00 C 292.52 312.36 292.53 336.72 292.54 361.08 C 276.34 361.10 260.15 361.08 243.96 361.09 C 235.75 361.07 227.55 361.12 219.34 361.06 C 219.34 336.74 219.34 312.41 219.34 288.09 Z" />
<path fill="#302872" opacity="1.00" d=" M 438.93 288.02 C 447.02 287.98 455.12 288.00 463.21 288.01 C 463.23 312.36 463.22 336.71 463.22 361.07 C 446.94 361.12 430.67 361.08 414.39 361.09 C 414.52 352.94 414.14 344.77 414.59 336.64 C 422.69 336.82 430.79 336.69 438.89 336.72 C 438.95 320.49 438.88 304.25 438.93 288.02 Z" />
<path fill="#302872" opacity="1.00" d=" M 243.96 385.53 C 260.16 385.50 276.36 385.52 292.55 385.52 C 292.55 401.75 292.55 417.98 292.55 434.20 C 284.39 434.21 276.23 434.19 268.07 434.21 C 268.02 442.40 268.09 450.60 268.04 458.79 C 260.01 458.84 251.98 458.80 243.96 458.81 C 243.94 434.39 243.94 409.96 243.96 385.53 Z" />
</g>
<g id="#463aa5ff">
<path fill="#463aa5" opacity="1.00" d=" M 267.96 93.08 C 333.04 93.02 398.12 93.05 463.20 93.06 C 463.23 109.27 463.22 125.49 463.21 141.70 C 398.16 141.69 333.10 141.70 268.05 141.70 C 268.01 125.49 268.17 109.28 267.96 93.08 Z" />
<path fill="#463aa5" opacity="1.00" d=" M 292.55 385.52 C 333.16 385.50 373.77 385.51 414.38 385.51 C 414.42 401.74 414.39 417.97 414.39 434.19 C 373.78 434.22 333.17 434.20 292.55 434.20 C 292.55 417.98 292.55 401.75 292.55 385.52 Z" />
</g>
<g id="#b38c51ff">
<path fill="#b38c51" opacity="1.00" d=" M 560.74 93.06 C 625.81 93.05 690.89 93.03 755.96 93.06 C 755.92 158.04 755.95 223.02 755.95 288.00 C 747.74 288.01 739.53 287.98 731.33 288.02 C 719.19 288.00 707.05 288.01 694.92 288.01 C 686.69 288.00 678.46 288.00 670.24 288.01 C 662.19 287.99 654.15 288.00 646.10 288.00 C 637.97 288.00 629.83 288.00 621.70 288.00 C 609.80 288.16 597.90 287.64 586.02 288.22 C 585.09 304.18 586.73 320.24 585.15 336.15 C 584.79 320.11 585.13 304.06 584.97 288.01 C 576.89 287.97 568.82 288.01 560.74 288.00 C 560.72 223.02 560.72 158.04 560.74 93.06 M 585.10 117.20 C 585.07 137.53 585.08 157.86 585.10 178.20 C 593.24 178.20 601.38 178.22 609.52 178.19 C 617.63 178.22 625.74 178.22 633.85 178.19 C 641.96 178.21 650.08 178.23 658.20 178.18 C 666.40 178.22 674.60 178.21 682.81 178.19 C 690.85 178.23 698.89 178.21 706.94 178.20 C 715.07 178.20 723.20 178.23 731.33 178.18 C 731.37 166.02 731.35 153.87 731.34 141.71 C 731.37 133.54 731.35 125.37 731.35 117.19 C 727.30 117.18 723.25 117.18 719.21 117.20 C 715.12 117.18 711.03 117.18 706.94 117.19 C 698.90 117.18 690.86 117.17 682.82 117.20 C 674.61 117.18 666.40 117.16 658.19 117.21 C 650.08 117.17 641.97 117.18 633.86 117.20 C 629.81 117.18 625.75 117.18 621.71 117.19 C 617.65 117.17 613.60 117.18 609.55 117.20 C 601.40 117.18 593.25 117.18 585.10 117.20 M 585.09 202.82 C 585.08 210.86 585.08 218.90 585.09 226.94 C 585.09 239.15 585.07 251.37 585.10 263.58 C 593.25 263.56 601.40 263.58 609.55 263.57 C 617.65 263.58 625.75 263.59 633.85 263.56 C 641.96 263.59 650.08 263.59 658.20 263.56 C 666.40 263.58 674.61 263.59 682.82 263.56 C 690.86 263.60 698.89 263.58 706.93 263.57 C 715.07 263.54 723.22 263.68 731.37 263.50 C 731.33 251.31 731.37 239.12 731.35 226.93 C 731.36 218.90 731.37 210.86 731.34 202.82 C 727.29 202.80 723.23 202.80 719.18 202.82 C 715.10 202.81 711.02 202.80 706.94 202.83 C 698.90 202.79 690.86 202.80 682.82 202.82 C 678.67 202.80 674.53 202.80 670.38 202.83 C 666.32 202.79 662.26 202.79 658.20 202.84 C 650.08 202.80 641.96 202.80 633.85 202.83 C 625.74 202.80 617.63 202.81 609.52 202.82 C 601.38 202.81 593.24 202.80 585.09 202.82 Z" />
</g>
<g id="#5d3d0bff">
<path fill="#5d3d0b" opacity="1.00" d=" M 755.96 93.06 C 780.30 93.05 804.65 93.02 828.99 93.08 C 829.08 158.04 829.10 223.00 828.98 287.96 C 824.92 287.95 820.87 288.00 816.82 288.02 C 812.56 288.00 808.31 288.00 804.06 288.02 C 800.06 288.01 796.07 287.98 792.08 288.00 C 788.05 287.99 784.02 288.01 780.00 288.02 C 776.01 288.00 772.03 288.00 768.05 288.02 C 764.01 288.02 759.98 287.99 755.95 288.00 C 755.95 223.02 755.92 158.04 755.96 93.06 M 768.09 117.18 C 767.91 125.20 767.99 133.22 768.04 141.23 C 772.03 141.67 776.05 141.62 780.04 141.17 L 780.04 142.04 C 776.04 141.73 772.03 141.71 768.03 141.99 C 767.97 154.05 767.99 166.12 768.02 178.18 C 772.03 178.24 776.04 178.25 780.05 178.15 C 784.14 178.21 788.24 178.21 792.34 178.17 C 796.40 178.23 800.47 178.24 804.55 178.16 C 808.61 178.25 812.69 178.45 816.74 177.88 C 816.76 157.68 816.84 137.48 816.70 117.28 C 812.69 117.06 808.67 117.08 804.66 117.27 C 800.53 117.12 796.40 117.13 792.27 117.26 C 788.19 117.03 784.11 117.03 780.04 117.24 C 776.05 117.14 772.07 117.14 768.09 117.18 M 768.12 203.03 C 767.94 223.23 767.81 243.45 768.22 263.64 C 772.15 263.76 776.10 263.75 780.04 263.57 C 784.15 263.58 788.26 263.61 792.38 263.55 C 796.41 263.68 800.45 263.68 804.50 263.53 C 808.55 263.62 812.62 263.60 816.69 263.57 C 816.77 243.35 816.71 223.14 816.72 202.92 C 812.62 202.78 808.52 202.63 804.45 203.04 C 800.42 202.74 796.40 202.74 792.38 202.95 C 788.27 202.69 784.15 202.83 780.05 202.84 C 776.07 202.77 772.09 202.75 768.12 203.03 Z" />
</g>
<g id="#bc1616ff">
<path fill="#bc1616" opacity="1.00" d=" M 585.10 117.20 C 593.25 117.18 601.40 117.18 609.55 117.20 C 609.49 125.36 609.53 133.53 609.52 141.70 C 609.51 153.86 609.51 166.03 609.52 178.19 C 601.38 178.22 593.24 178.20 585.10 178.20 C 585.08 157.86 585.07 137.53 585.10 117.20 Z" />
<path fill="#bc1616" opacity="1.00" d=" M 658.20 226.93 C 662.26 226.94 666.32 226.93 670.38 226.93 C 674.52 226.93 678.67 226.93 682.81 226.93 C 682.82 239.14 682.80 251.35 682.82 263.56 C 674.61 263.59 666.40 263.58 658.20 263.56 C 658.21 251.35 658.20 239.14 658.20 226.93 Z" />
</g>
<g id="#773007ff">
<path fill="#773007" opacity="1.00" d=" M 609.55 117.20 C 613.60 117.18 617.65 117.17 621.71 117.19 C 621.69 125.36 621.66 133.53 621.72 141.70 C 617.65 141.70 613.58 141.70 609.52 141.70 C 609.53 133.53 609.49 125.36 609.55 117.20 Z" />
</g>
<g id="#2c2213ff">
<path fill="#2c2213" opacity="1.00" d=" M 621.71 117.19 C 625.75 117.18 629.81 117.18 633.86 117.20 C 633.82 125.37 633.85 133.54 633.84 141.70 C 629.80 141.69 625.76 141.69 621.72 141.70 C 621.66 133.53 621.69 125.36 621.71 117.19 Z" />
<path fill="#2c2213" opacity="1.00" d=" M 719.21 117.20 C 723.25 117.18 727.30 117.18 731.35 117.19 C 731.35 125.37 731.37 133.54 731.34 141.71 C 727.29 141.70 723.25 141.70 719.20 141.69 C 719.22 133.53 719.21 125.36 719.21 117.20 Z" />
<path fill="#2c2213" opacity="1.00" d=" M 585.09 202.82 C 593.24 202.80 601.38 202.81 609.52 202.82 C 609.50 210.86 609.52 218.90 609.52 226.94 C 601.37 226.93 593.23 226.93 585.09 226.94 C 585.08 218.90 585.08 210.86 585.09 202.82 Z" />
<path fill="#2c2213" opacity="1.00" d=" M 670.38 202.83 C 674.53 202.80 678.67 202.80 682.82 202.82 C 682.80 210.86 682.81 218.89 682.81 226.93 C 678.67 226.93 674.52 226.93 670.38 226.93 C 670.41 218.89 670.40 210.86 670.38 202.83 Z" />
<path fill="#2c2213" opacity="1.00" d=" M 719.18 202.82 C 723.23 202.80 727.29 202.80 731.34 202.82 C 731.37 210.86 731.36 218.90 731.35 226.93 C 727.29 226.93 723.23 226.93 719.18 226.93 C 719.23 218.89 719.23 210.86 719.18 202.82 Z" />
</g>
<g id="#758e11ff">
<path fill="#758e11" opacity="1.00" d=" M 633.86 117.20 C 641.97 117.18 650.08 117.17 658.19 117.21 C 658.21 137.53 658.21 157.86 658.20 178.18 C 650.08 178.23 641.96 178.21 633.85 178.19 C 633.83 166.03 633.84 153.87 633.84 141.70 C 633.85 133.54 633.82 125.37 633.86 117.20 Z" />
<path fill="#758e11" opacity="1.00" d=" M 682.82 202.82 C 690.86 202.80 698.90 202.79 706.94 202.83 C 706.93 210.86 706.93 218.90 706.93 226.93 C 706.93 239.15 706.93 251.36 706.93 263.57 C 698.89 263.58 690.86 263.60 682.82 263.56 C 682.80 251.35 682.82 239.14 682.81 226.93 C 682.81 218.89 682.80 210.86 682.82 202.82 Z" />
</g>
<g id="#dfcc00ff">
<path fill="#dfcc00" opacity="1.00" d=" M 658.19 117.21 C 666.40 117.16 674.61 117.18 682.82 117.20 C 682.80 137.53 682.81 157.86 682.81 178.19 C 674.60 178.21 666.40 178.22 658.20 178.18 C 658.21 157.86 658.21 137.53 658.19 117.21 Z" />
<path fill="#dfcc00" opacity="1.00" d=" M 633.85 202.83 C 641.96 202.80 650.08 202.80 658.20 202.84 C 658.21 210.87 658.20 218.90 658.20 226.93 C 658.20 239.14 658.21 251.35 658.20 263.56 C 650.08 263.59 641.96 263.59 633.85 263.56 C 633.84 243.32 633.84 223.08 633.85 202.83 Z" />
</g>
<g id="#3163a3ff">
<path fill="#3163a3" opacity="1.00" d=" M 682.82 117.20 C 690.86 117.17 698.90 117.18 706.94 117.19 C 706.92 125.37 706.93 133.54 706.94 141.72 C 706.93 153.88 706.93 166.04 706.94 178.20 C 698.89 178.21 690.85 178.23 682.81 178.19 C 682.81 157.86 682.80 137.53 682.82 117.20 Z" />
<path fill="#3163a3" opacity="1.00" d=" M 609.52 141.70 C 613.58 141.70 617.65 141.70 621.72 141.70 C 625.76 141.69 629.80 141.69 633.84 141.70 C 633.84 153.87 633.83 166.03 633.85 178.19 C 625.74 178.22 617.63 178.22 609.52 178.19 C 609.51 166.03 609.51 153.86 609.52 141.70 Z" />
<path fill="#3163a3" opacity="1.00" d=" M 609.52 202.82 C 617.63 202.81 625.74 202.80 633.85 202.83 C 633.84 223.08 633.84 243.32 633.85 263.56 C 625.75 263.59 617.65 263.58 609.55 263.57 C 609.47 251.36 609.53 239.15 609.52 226.94 C 609.52 218.90 609.50 210.86 609.52 202.82 Z" />
<path fill="#3163a3" opacity="1.00" d=" M 706.93 226.93 C 711.01 226.93 715.09 226.93 719.18 226.93 C 723.23 226.93 727.29 226.93 731.35 226.93 C 731.37 239.12 731.33 251.31 731.37 263.50 C 723.22 263.68 715.07 263.54 706.93 263.57 C 706.93 251.36 706.93 239.15 706.93 226.93 Z" />
</g>
<g id="#254f84ff">
<path fill="#254f84" opacity="1.00" d=" M 706.94 117.19 C 711.03 117.18 715.12 117.18 719.21 117.20 C 719.21 125.36 719.22 133.53 719.20 141.69 C 715.11 141.68 711.02 141.69 706.94 141.72 C 706.93 133.54 706.92 125.37 706.94 117.19 Z" />
</g>
<g id="#361300ff">
<path fill="#361300" opacity="1.00" d=" M 768.09 117.18 C 772.07 117.14 776.05 117.14 780.04 117.24 C 780.06 125.22 780.05 133.19 780.04 141.17 C 776.05 141.62 772.03 141.67 768.04 141.23 C 767.99 133.22 767.91 125.20 768.09 117.18 Z" />
</g>
<g id="#592000ff">
<path fill="#592000" opacity="1.00" d=" M 780.04 117.24 C 784.11 117.03 788.19 117.03 792.27 117.26 C 792.42 125.41 792.30 133.57 792.35 141.72 C 792.35 153.87 792.37 166.02 792.34 178.17 C 788.24 178.21 784.14 178.21 780.05 178.15 C 780.04 166.11 780.06 154.08 780.04 142.04 L 780.04 141.17 C 780.05 133.19 780.06 125.22 780.04 117.24 Z" />
<path fill="#592000" opacity="1.00" d=" M 768.12 203.03 C 772.09 202.75 776.07 202.77 780.05 202.84 C 780.05 223.08 780.06 243.32 780.04 263.57 C 776.10 263.75 772.15 263.76 768.22 263.64 C 767.81 243.45 767.94 223.23 768.12 203.03 Z" />
</g>
<g id="#283200ff">
<path fill="#283200" opacity="1.00" d=" M 792.27 117.26 C 796.40 117.13 800.53 117.12 804.66 117.27 C 804.44 125.42 804.62 133.57 804.54 141.72 C 800.47 141.69 796.41 141.69 792.35 141.72 C 792.30 133.57 792.42 125.41 792.27 117.26 Z" />
</g>
<g id="#465700ff">
<path fill="#465700" opacity="1.00" d=" M 804.66 117.27 C 808.67 117.08 812.69 117.06 816.70 117.28 C 816.84 137.48 816.76 157.68 816.74 177.88 C 812.69 178.45 808.61 178.25 804.55 178.16 C 804.51 166.01 804.53 153.87 804.54 141.72 C 804.62 133.57 804.44 125.42 804.66 117.27 Z" />
<path fill="#465700" opacity="1.00" d=" M 706.94 202.83 C 711.02 202.80 715.10 202.81 719.18 202.82 C 719.23 210.86 719.23 218.89 719.18 226.93 C 715.09 226.93 711.01 226.93 706.93 226.93 C 706.93 218.90 706.93 210.86 706.94 202.83 Z" />
<path fill="#465700" opacity="1.00" d=" M 792.36 227.01 C 796.41 226.95 800.47 226.93 804.53 226.95 C 804.51 239.14 804.57 251.34 804.50 263.53 C 800.45 263.68 796.41 263.68 792.38 263.55 C 792.32 251.37 792.36 239.19 792.36 227.01 Z" />
</g>
<g id="#9c6c00ff">
<path fill="#9c6c00" opacity="1.00" d=" M 194.95 141.70 C 219.32 141.69 243.68 141.69 268.05 141.70 C 268.05 149.83 268.05 157.97 268.05 166.11 C 243.68 166.12 219.31 166.12 194.94 166.11 C 194.93 157.97 194.91 149.83 194.95 141.70 Z" />
<path fill="#9c6c00" opacity="1.00" d=" M 292.54 288.00 C 300.71 288.00 308.88 288.00 317.05 288.00 C 317.05 312.36 317.06 336.72 317.05 361.08 C 308.88 361.09 300.71 361.08 292.54 361.08 C 292.53 336.72 292.52 312.36 292.54 288.00 Z" />
<path fill="#9c6c00" opacity="1.00" d=" M 463.21 288.01 C 471.34 287.99 479.46 287.99 487.59 288.01 C 487.58 312.36 487.57 336.72 487.59 361.08 C 479.47 361.08 471.34 361.10 463.22 361.07 C 463.22 336.71 463.23 312.36 463.21 288.01 Z" />
<path fill="#9c6c00" opacity="1.00" d=" M 268.07 434.21 C 276.23 434.19 284.39 434.21 292.55 434.20 C 292.53 442.41 292.49 450.61 292.58 458.82 C 288.51 458.79 284.44 458.78 280.37 458.88 C 280.31 466.89 280.38 474.91 280.34 482.92 C 268.22 482.94 256.09 482.95 243.96 482.91 C 243.93 474.88 243.93 466.85 243.96 458.81 C 251.98 458.80 260.01 458.84 268.04 458.79 C 268.09 450.60 268.02 442.40 268.07 434.21 Z" />
</g>
<g id="#d8a22aff">
<path fill="#d8a22a" opacity="1.00" d=" M 268.05 141.70 C 333.10 141.70 398.16 141.69 463.21 141.70 C 463.22 149.84 463.22 157.97 463.21 166.11 C 455.12 166.12 447.03 166.10 438.93 166.12 C 422.66 166.11 406.38 166.11 390.11 166.11 C 373.79 166.11 357.49 166.11 341.18 166.11 C 324.97 166.11 308.77 166.11 292.57 166.11 C 284.40 166.11 276.22 166.11 268.05 166.11 C 268.05 157.97 268.05 149.83 268.05 141.70 Z" />
<path fill="#d8a22a" opacity="1.00" d=" M 292.55 434.20 C 333.17 434.20 373.78 434.22 414.39 434.19 C 414.39 442.40 414.41 450.62 414.38 458.83 C 394.21 458.80 374.04 458.82 353.87 458.82 C 333.44 458.82 313.01 458.81 292.58 458.82 C 292.49 450.61 292.53 442.41 292.55 434.20 Z" />
</g>
<g id="#118e6bff">
<path fill="#118e6b" opacity="1.00" d=" M 706.94 141.72 C 711.02 141.69 715.11 141.68 719.20 141.69 C 723.25 141.70 727.29 141.70 731.34 141.71 C 731.35 153.87 731.37 166.02 731.33 178.18 C 723.20 178.23 715.07 178.20 706.94 178.20 C 706.93 166.04 706.93 153.88 706.94 141.72 Z" />
<path fill="#118e6b" opacity="1.00" d=" M 585.09 226.94 C 593.23 226.93 601.37 226.93 609.52 226.94 C 609.53 239.15 609.47 251.36 609.55 263.57 C 601.40 263.58 593.25 263.56 585.10 263.58 C 585.07 251.37 585.09 239.15 585.09 226.94 Z" />
</g>
<g id="#918500ff">
<path fill="#918500" opacity="1.00" d=" M 768.03 141.99 C 772.03 141.71 776.04 141.73 780.04 142.04 C 780.06 154.08 780.04 166.11 780.05 178.15 C 776.04 178.25 772.03 178.24 768.02 178.18 C 767.99 166.12 767.97 154.05 768.03 141.99 Z" />
<path fill="#918500" opacity="1.00" d=" M 804.45 203.04 C 808.52 202.63 812.62 202.78 816.72 202.92 C 816.71 223.14 816.77 243.35 816.69 263.57 C 812.62 263.60 808.55 263.62 804.50 263.53 C 804.57 251.34 804.51 239.14 804.53 226.95 C 804.52 218.98 804.64 211.00 804.45 203.04 Z" />
</g>
<g id="#002b60ff">
<path fill="#002b60" opacity="1.00" d=" M 792.35 141.72 C 796.41 141.69 800.47 141.69 804.54 141.72 C 804.53 153.87 804.51 166.01 804.55 178.16 C 800.47 178.24 796.40 178.23 792.34 178.17 C 792.37 166.02 792.35 153.87 792.35 141.72 Z" />
<path fill="#002b60" opacity="1.00" d=" M 780.05 202.84 C 784.15 202.83 788.27 202.69 792.38 202.95 C 792.32 210.97 792.36 218.99 792.36 227.01 C 792.36 239.19 792.32 251.37 792.38 263.55 C 788.26 263.61 784.15 263.58 780.04 263.57 C 780.06 243.32 780.05 223.08 780.05 202.84 Z" />
</g>
<g id="#5d5d5dff">
<path fill="#5d5d5d" opacity="1.00" d=" M 194.94 166.11 C 219.31 166.12 243.68 166.12 268.05 166.11 C 268.04 170.13 268.05 174.15 268.06 178.17 C 268.06 198.51 268.06 218.85 268.06 239.19 C 268.03 255.46 268.07 271.73 268.04 288.00 C 251.81 288.07 235.57 287.87 219.34 288.09 C 219.34 312.41 219.34 336.74 219.34 361.06 C 219.32 369.21 219.41 377.36 219.28 385.52 C 211.22 385.55 203.15 385.49 195.09 385.56 C 194.72 356.07 195.03 326.56 194.93 297.06 C 194.94 253.41 194.91 209.76 194.94 166.11 M 219.39 190.41 C 219.31 206.61 219.40 222.80 219.34 238.99 C 227.52 239.46 235.73 239.17 243.92 239.15 C 243.93 222.89 244.06 206.63 243.85 190.38 C 235.69 190.43 227.54 190.37 219.39 190.41 Z" />
<path fill="#5d5d5d" opacity="1.00" d=" M 280.37 458.88 C 284.44 458.78 288.51 458.79 292.58 458.82 C 292.81 466.86 292.54 474.90 292.82 482.93 C 288.66 482.94 284.50 482.94 280.34 482.92 C 280.38 474.91 280.31 466.89 280.37 458.88 Z" />
</g>
<g id="#995a3cff">
<path fill="#995a3c" opacity="1.00" d=" M 268.05 166.11 C 276.22 166.11 284.40 166.11 292.57 166.11 C 292.52 170.13 292.52 174.15 292.55 178.17 C 284.39 178.22 276.22 178.22 268.06 178.17 C 268.05 174.15 268.04 170.13 268.05 166.11 Z" />
<path fill="#995a3c" opacity="1.00" d=" M 341.18 166.11 C 357.49 166.11 373.79 166.11 390.11 166.11 C 390.11 170.14 390.11 174.16 390.11 178.19 C 373.80 178.20 357.49 178.21 341.18 178.18 C 341.19 174.16 341.19 170.14 341.18 166.11 Z" />
<path fill="#995a3c" opacity="1.00" d=" M 438.93 166.12 C 447.03 166.10 455.12 166.12 463.21 166.11 C 463.22 170.13 463.22 174.15 463.21 178.17 C 455.11 178.23 447.01 178.20 438.91 178.19 C 438.91 174.16 438.91 170.14 438.93 166.12 Z" />
<path fill="#995a3c" opacity="1.00" d=" M 219.39 190.41 C 227.54 190.37 235.69 190.43 243.85 190.38 C 244.06 206.63 243.93 222.89 243.92 239.15 C 235.73 239.17 227.52 239.46 219.34 238.99 C 219.40 222.80 219.31 206.61 219.39 190.41 Z" />
</g>
<g id="#838383ff">
<path fill="#838383" opacity="1.00" d=" M 292.57 166.11 C 308.77 166.11 324.97 166.11 341.18 166.11 C 341.19 170.14 341.19 174.16 341.18 178.18 C 324.97 178.21 308.76 178.23 292.55 178.17 C 292.52 174.15 292.52 170.13 292.57 166.11 Z" />
<path fill="#838383" opacity="1.00" d=" M 390.11 166.11 C 406.38 166.11 422.66 166.11 438.93 166.12 C 438.91 170.14 438.91 174.16 438.91 178.19 C 422.64 178.22 406.38 178.21 390.11 178.19 C 390.11 174.16 390.11 170.14 390.11 166.11 Z" />
<path fill="#838383" opacity="1.00" d=" M 341.18 239.21 C 357.49 239.23 373.80 239.22 390.11 239.22 C 389.98 247.33 390.47 255.47 389.85 263.57 C 373.67 263.62 357.48 263.60 341.30 263.58 C 340.96 255.46 341.25 247.34 341.18 239.21 Z" />
</g>
<g id="#b07e64ff">
<path fill="#b07e64" opacity="1.00" d=" M 268.06 178.17 C 276.22 178.22 284.39 178.22 292.55 178.17 C 292.53 182.24 292.53 186.32 292.54 190.39 C 292.54 198.56 292.52 206.73 292.54 214.91 C 300.71 214.92 308.88 214.91 317.05 214.91 C 325.09 214.89 333.14 214.94 341.18 214.89 C 341.21 206.72 341.19 198.55 341.19 190.38 C 341.18 186.31 341.19 182.25 341.18 178.18 C 357.49 178.21 373.80 178.20 390.11 178.19 C 390.10 182.25 390.11 186.31 390.12 190.37 C 390.12 198.55 390.09 206.72 390.12 214.90 C 398.21 214.93 406.31 214.90 414.40 214.91 C 422.57 214.91 430.73 214.93 438.90 214.91 C 438.93 206.74 438.91 198.56 438.91 190.39 C 438.90 186.32 438.90 182.26 438.91 178.19 C 447.01 178.20 455.11 178.23 463.21 178.17 C 463.23 198.51 463.22 218.86 463.21 239.20 C 438.85 239.24 414.48 239.22 390.11 239.22 C 390.09 231.12 390.17 223.02 390.07 214.92 C 373.78 214.93 357.50 214.83 341.21 214.97 C 341.15 223.05 341.22 231.13 341.18 239.21 C 316.81 239.21 292.43 239.26 268.06 239.19 C 268.06 218.85 268.06 198.51 268.06 178.17 Z" />
<path fill="#b07e64" opacity="1.00" d=" M 317.05 288.00 C 333.27 288.07 349.49 287.85 365.71 288.11 C 365.73 312.43 365.64 336.76 365.75 361.08 C 349.51 361.08 333.28 361.08 317.05 361.08 C 317.06 336.72 317.05 312.36 317.05 288.00 Z" />
<path fill="#b07e64" opacity="1.00" d=" M 487.59 288.01 C 503.84 287.99 520.09 287.99 536.34 288.01 C 536.35 312.36 536.36 336.71 536.33 361.07 C 520.09 361.10 503.84 361.09 487.59 361.08 C 487.57 336.72 487.58 312.36 487.59 288.01 Z" />
</g>
<g id="#9a9a9aff">
<path fill="#9a9a9a" opacity="1.00" d=" M 292.55 178.17 C 308.76 178.23 324.97 178.21 341.18 178.18 C 341.19 182.25 341.18 186.31 341.19 190.38 C 333.14 190.42 325.09 190.38 317.04 190.40 C 308.87 190.40 300.71 190.42 292.54 190.39 C 292.53 186.32 292.53 182.24 292.55 178.17 Z" />
<path fill="#9a9a9a" opacity="1.00" d=" M 390.11 178.19 C 406.38 178.21 422.64 178.22 438.91 178.19 C 438.90 182.26 438.90 186.32 438.91 190.39 C 430.74 190.42 422.56 190.40 414.39 190.40 C 406.30 190.37 398.21 190.42 390.12 190.37 C 390.11 186.31 390.10 182.25 390.11 178.19 Z" />
<path fill="#9a9a9a" opacity="1.00" d=" M 268.06 239.19 C 292.43 239.26 316.81 239.21 341.18 239.21 C 341.25 247.34 340.96 255.46 341.30 263.58 C 357.48 263.60 373.67 263.62 389.85 263.57 C 390.47 255.47 389.98 247.33 390.11 239.22 C 414.48 239.22 438.85 239.24 463.21 239.20 C 463.22 255.47 463.22 271.74 463.21 288.01 C 455.12 288.00 447.02 287.98 438.93 288.02 C 438.88 304.25 438.95 320.49 438.89 336.72 C 430.79 336.69 422.69 336.82 414.59 336.64 C 414.14 344.77 414.52 352.94 414.39 361.09 C 398.18 361.08 381.96 361.09 365.75 361.08 C 365.64 336.76 365.73 312.43 365.71 288.11 C 349.49 287.85 333.27 288.07 317.05 288.00 C 308.88 288.00 300.71 288.00 292.54 288.00 C 284.37 288.00 276.21 288.00 268.04 288.00 C 268.07 271.73 268.03 255.46 268.06 239.19 Z" />
</g>
<g id="#ffffffff">
<path fill="#ffffff" opacity="1.00" d=" M 292.54 190.39 C 300.71 190.42 308.87 190.40 317.04 190.40 C 317.05 198.57 317.04 206.74 317.05 214.91 C 308.88 214.91 300.71 214.92 292.54 214.91 C 292.52 206.73 292.54 198.56 292.54 190.39 Z" />
<path fill="#ffffff" opacity="1.00" d=" M 414.39 190.40 C 422.56 190.40 430.74 190.42 438.91 190.39 C 438.91 198.56 438.93 206.74 438.90 214.91 C 430.73 214.93 422.57 214.91 414.40 214.91 C 414.40 206.74 414.40 198.57 414.39 190.40 Z" />
</g>
<g id="#5835a2ff">
<path fill="#5835a2" opacity="1.00" d=" M 317.04 190.40 C 325.09 190.38 333.14 190.42 341.19 190.38 C 341.19 198.55 341.21 206.72 341.18 214.89 C 333.14 214.94 325.09 214.89 317.05 214.91 C 317.04 206.74 317.05 198.57 317.04 190.40 Z" />
<path fill="#5835a2" opacity="1.00" d=" M 390.12 190.37 C 398.21 190.42 406.30 190.37 414.39 190.40 C 414.40 198.57 414.40 206.74 414.40 214.91 C 406.31 214.90 398.21 214.93 390.12 214.90 C 390.09 206.72 390.12 198.55 390.12 190.37 Z" />
</g>
<g id="#8a7e00ff">
<path fill="#8a7e00" opacity="1.00" d=" M 658.20 202.84 C 662.26 202.79 666.32 202.79 670.38 202.83 C 670.40 210.86 670.41 218.89 670.38 226.93 C 666.32 226.93 662.26 226.94 658.20 226.93 C 658.20 218.90 658.21 210.87 658.20 202.84 Z" />
</g>
<g id="#605800ff">
<path fill="#605800" opacity="1.00" d=" M 792.38 202.95 C 796.40 202.74 800.42 202.74 804.45 203.04 C 804.64 211.00 804.52 218.98 804.53 226.95 C 800.47 226.93 796.41 226.95 792.36 227.01 C 792.36 218.99 792.32 210.97 792.38 202.95 Z" />
</g>
<g id="#6a4030ff">
<path fill="#6a4030" opacity="1.00" d=" M 341.21 214.97 C 357.50 214.83 373.78 214.93 390.07 214.92 C 390.17 223.02 390.09 231.12 390.11 239.22 C 373.80 239.22 357.49 239.23 341.18 239.21 C 341.22 231.13 341.15 223.05 341.21 214.97 Z" />
</g>
<g id="#67502cff">
<path fill="#67502c" opacity="1.00" d=" M 560.74 288.00 C 568.82 288.01 576.89 287.97 584.97 288.01 C 585.13 304.06 584.79 320.11 585.15 336.15 L 585.14 336.76 C 585.07 353.01 585.00 369.27 585.18 385.52 C 577.03 385.51 568.88 385.51 560.73 385.52 C 560.73 353.01 560.72 320.51 560.74 288.00 Z" />
<path fill="#67502c" opacity="1.00" d=" M 731.33 288.02 C 739.53 287.98 747.74 288.01 755.95 288.00 C 755.96 352.96 755.90 417.92 755.98 482.88 C 747.77 482.99 739.56 482.91 731.36 482.92 C 731.35 478.93 731.34 474.93 731.35 470.94 C 731.35 466.90 731.35 462.86 731.35 458.82 C 731.36 434.39 731.35 409.95 731.35 385.52 C 731.35 369.25 731.36 352.99 731.34 336.73 C 731.34 320.49 731.38 304.25 731.33 288.02 Z" />
<path fill="#67502c" opacity="1.00" d=" M 621.73 336.73 C 629.85 336.74 637.98 336.71 646.11 336.74 C 646.10 344.85 646.10 352.97 646.11 361.08 C 637.97 361.10 629.83 361.09 621.70 361.09 C 621.70 352.97 621.66 344.85 621.73 336.73 Z" />
<path fill="#67502c" opacity="1.00" d=" M 670.40 336.74 C 678.57 336.71 686.75 336.74 694.93 336.73 C 694.95 344.85 694.92 352.96 694.91 361.08 C 686.74 361.10 678.57 361.09 670.40 361.09 C 670.41 352.97 670.41 344.86 670.40 336.74 Z" />
<path fill="#67502c" opacity="1.00" d=" M 621.71 422.07 C 629.84 422.15 637.96 422.16 646.09 422.07 C 646.10 426.11 646.11 430.15 646.11 434.19 C 637.98 434.21 629.85 434.20 621.72 434.20 C 621.68 430.15 621.68 426.11 621.71 422.07 Z" />
<path fill="#67502c" opacity="1.00" d=" M 560.78 446.25 C 568.88 446.44 576.99 446.34 585.10 446.32 C 585.07 458.52 585.12 470.72 585.07 482.92 C 576.97 482.93 568.87 482.95 560.77 482.91 C 560.70 470.69 560.69 458.47 560.78 446.25 Z" />
</g>
<g id="#b8945fff">
<path fill="#b8945f" opacity="1.00" d=" M 586.02 288.22 C 597.90 287.64 609.80 288.16 621.70 288.00 C 621.69 296.11 621.66 304.22 621.71 312.34 C 629.85 312.39 638.00 312.32 646.15 312.37 C 646.08 320.49 646.14 328.62 646.11 336.74 C 637.98 336.71 629.85 336.74 621.73 336.73 C 617.71 336.72 613.69 336.72 609.67 336.72 C 601.49 336.74 593.32 336.69 585.14 336.76 L 585.15 336.15 C 586.73 320.24 585.09 304.18 586.02 288.22 Z" />
<path fill="#b8945f" opacity="1.00" d=" M 694.92 288.01 C 707.05 288.01 719.19 288.00 731.33 288.02 C 731.38 304.25 731.34 320.49 731.34 336.73 C 727.27 336.72 723.20 336.72 719.14 336.73 C 711.07 336.73 703.00 336.72 694.93 336.73 C 686.75 336.74 678.57 336.71 670.40 336.74 C 670.40 328.62 670.39 320.49 670.40 312.36 C 678.57 312.33 686.73 312.38 694.90 312.34 C 694.93 304.23 694.89 296.12 694.92 288.01 Z" />
<path fill="#b8945f" opacity="1.00" d=" M 621.70 361.09 C 629.83 361.09 637.97 361.10 646.11 361.08 C 646.12 369.24 646.11 377.40 646.12 385.56 C 642.03 385.51 637.95 385.52 633.87 385.52 C 629.81 385.52 625.75 385.51 621.69 385.51 C 621.70 377.37 621.69 369.23 621.70 361.09 Z" />
<path fill="#b8945f" opacity="1.00" d=" M 670.40 361.09 C 678.57 361.09 686.74 361.10 694.91 361.08 C 694.91 369.23 694.91 377.37 694.91 385.52 C 686.74 385.53 678.57 385.49 670.40 385.54 C 670.40 377.39 670.40 369.24 670.40 361.09 Z" />
<path fill="#b8945f" opacity="1.00" d=" M 621.72 434.20 C 629.85 434.20 637.98 434.21 646.11 434.19 C 646.12 450.43 646.11 466.68 646.12 482.93 C 625.77 482.93 605.42 482.94 585.07 482.92 C 585.12 470.72 585.07 458.52 585.10 446.32 C 597.29 446.27 609.52 446.79 621.70 446.08 C 621.73 442.12 621.76 438.16 621.72 434.20 Z" />
<path fill="#b8945f" opacity="1.00" d=" M 670.40 470.91 C 690.72 470.93 711.03 470.87 731.35 470.94 C 731.34 474.93 731.35 478.93 731.36 482.92 C 711.04 482.94 690.72 482.93 670.40 482.93 C 670.39 478.92 670.40 474.91 670.40 470.91 Z" />
</g>
<g id="#4a2d1fff">
<path fill="#4a2d1f" opacity="1.00" d=" M 621.70 288.00 C 629.83 288.00 637.97 288.00 646.10 288.00 C 646.41 296.08 645.52 304.22 646.58 312.26 C 654.38 312.27 662.21 312.73 669.98 311.94 C 670.83 303.99 670.27 295.98 670.24 288.01 C 678.46 288.00 686.69 288.00 694.92 288.01 C 694.89 296.12 694.93 304.23 694.90 312.34 C 686.73 312.38 678.57 312.33 670.40 312.36 C 670.39 320.49 670.40 328.62 670.40 336.74 C 662.30 336.88 654.20 336.86 646.11 336.74 C 646.14 328.62 646.08 320.49 646.15 312.37 C 638.00 312.32 629.85 312.39 621.71 312.34 C 621.66 304.22 621.69 296.11 621.70 288.00 Z" />
<path fill="#4a2d1f" opacity="1.00" d=" M 646.11 361.08 C 654.20 361.05 662.30 361.03 670.40 361.09 C 670.40 369.24 670.40 377.39 670.40 385.54 C 670.40 393.66 670.40 401.78 670.40 409.90 C 662.30 409.87 654.21 409.94 646.11 409.85 C 646.12 401.75 646.11 393.65 646.12 385.56 C 646.11 377.40 646.12 369.24 646.11 361.08 Z" />
<path fill="#4a2d1f" opacity="1.00" d=" M 646.11 434.19 C 654.20 434.06 662.30 434.17 670.40 434.10 C 670.40 442.34 670.39 450.58 670.40 458.83 C 670.40 462.85 670.40 466.88 670.40 470.91 C 670.40 474.91 670.39 478.92 670.40 482.93 C 662.30 482.95 654.21 482.93 646.12 482.93 C 646.11 466.68 646.12 450.43 646.11 434.19 Z" />
</g>
<g id="#733920ff">
<path fill="#733920" opacity="1.00" d=" M 646.10 288.00 C 654.15 288.00 662.19 287.99 670.24 288.01 C 670.27 295.98 670.83 303.99 669.98 311.94 C 662.21 312.73 654.38 312.27 646.58 312.26 C 645.52 304.22 646.41 296.08 646.10 288.00 Z" />
</g>
<g id="#3d2b10ff">
<path fill="#3d2b10" opacity="1.00" d=" M 755.95 288.00 C 759.98 287.99 764.01 288.02 768.05 288.02 C 768.02 304.01 767.84 320.01 768.14 335.99 C 776.08 336.67 784.07 336.25 792.03 336.14 L 792.01 337.09 C 784.05 337.22 776.09 336.96 768.14 337.21 C 767.80 353.32 768.11 369.44 768.00 385.55 C 768.00 409.99 767.98 434.43 768.02 458.87 C 767.99 462.90 768.02 466.93 768.06 470.97 C 768.06 474.93 767.99 478.89 767.98 482.86 C 763.98 483.01 759.97 483.01 755.98 482.88 C 755.90 417.92 755.96 352.96 755.95 288.00 Z" />
<path fill="#3d2b10" opacity="1.00" d=" M 804.90 336.82 C 812.91 336.80 820.92 336.76 828.93 336.90 C 829.11 344.93 829.10 352.97 828.94 361.01 C 820.84 361.03 812.73 361.10 804.63 360.99 C 804.74 352.93 804.36 344.86 804.90 336.82 Z" />
<path fill="#3d2b10" opacity="1.00" d=" M 804.64 409.97 C 812.74 409.84 820.85 409.81 828.96 409.93 C 829.11 417.97 829.09 426.02 828.93 434.06 C 820.83 434.11 812.73 434.21 804.64 434.03 C 804.60 426.01 804.60 417.99 804.64 409.97 Z" />
</g>
<g id="#4f3a19ff">
<path fill="#4f3a19" opacity="1.00" d=" M 768.05 288.02 C 772.03 288.00 776.01 288.00 780.00 288.02 C 780.17 296.07 779.92 304.12 780.12 312.17 C 784.08 312.44 788.06 312.42 792.03 312.22 C 792.12 320.19 792.16 328.17 792.03 336.14 C 784.07 336.25 776.08 336.67 768.14 335.99 C 767.84 320.01 768.02 304.01 768.05 288.02 Z" />
<path fill="#4f3a19" opacity="1.00" d=" M 816.82 288.02 C 820.87 288.00 824.92 287.95 828.98 287.96 C 829.05 304.27 829.17 320.59 828.93 336.90 C 820.92 336.76 812.91 336.80 804.90 336.82 L 804.33 336.82 C 804.74 328.68 804.35 320.53 804.53 312.39 C 808.59 312.38 812.65 312.41 816.71 312.11 C 816.86 304.08 816.61 296.05 816.82 288.02 Z" />
<path fill="#4f3a19" opacity="1.00" d=" M 804.63 360.99 C 812.73 361.10 820.84 361.03 828.94 361.01 C 829.13 377.31 829.08 393.62 828.96 409.93 C 820.85 409.81 812.74 409.84 804.64 409.97 C 804.51 393.65 804.51 377.31 804.63 360.99 Z" />
<path fill="#4f3a19" opacity="1.00" d=" M 621.83 409.84 C 625.84 409.84 629.86 409.84 633.87 409.84 C 637.95 409.84 642.03 409.84 646.11 409.85 C 646.08 413.92 646.06 417.99 646.09 422.07 C 637.96 422.16 629.84 422.15 621.71 422.07 C 621.72 417.99 621.75 413.92 621.83 409.84 Z" />
<path fill="#4f3a19" opacity="1.00" d=" M 560.73 434.21 C 568.85 434.20 576.97 434.20 585.09 434.21 C 585.09 438.24 585.09 442.28 585.10 446.32 C 576.99 446.34 568.88 446.44 560.78 446.25 C 560.71 442.23 560.69 438.22 560.73 434.21 Z" />
<path fill="#4f3a19" opacity="1.00" d=" M 804.64 434.03 C 812.73 434.21 820.83 434.11 828.93 434.06 C 829.13 450.33 829.12 466.62 828.93 482.89 C 820.83 482.95 812.72 482.99 804.62 482.86 C 804.52 466.59 804.50 450.31 804.64 434.03 Z" />
<path fill="#4f3a19" opacity="1.00" d=" M 768.06 470.97 C 776.13 470.98 784.20 470.97 792.28 470.94 C 792.34 474.92 792.36 478.89 792.31 482.87 C 784.20 482.97 776.08 482.99 767.98 482.86 C 767.99 478.89 768.06 474.93 768.06 470.97 Z" />
</g>
<g id="#2d1b12ff">
<path fill="#2d1b12" opacity="1.00" d=" M 780.00 288.02 C 784.02 288.01 788.05 287.99 792.08 288.00 C 792.19 296.07 792.15 304.15 792.03 312.22 C 788.06 312.42 784.08 312.44 780.12 312.17 C 779.92 304.12 780.17 296.07 780.00 288.02 Z" />
<path fill="#2d1b12" opacity="1.00" d=" M 804.06 288.02 C 808.31 288.00 812.56 288.00 816.82 288.02 C 816.61 296.05 816.86 304.08 816.71 312.11 C 812.65 312.41 808.59 312.38 804.53 312.39 C 804.35 320.53 804.74 328.68 804.33 336.82 C 800.55 336.90 796.78 336.83 793.02 337.01 C 793.30 328.78 792.64 320.55 793.21 312.33 C 796.59 312.09 800.11 312.46 803.39 311.43 C 804.31 309.44 804.13 307.16 804.22 305.03 C 804.16 299.36 804.14 293.69 804.06 288.02 Z" />
<path fill="#2d1b12" opacity="1.00" d=" M 792.12 361.01 C 796.28 361.05 800.46 361.04 804.63 360.99 C 804.51 377.31 804.51 393.65 804.64 409.97 C 800.52 409.93 796.41 409.94 792.31 410.00 C 792.16 401.84 792.38 393.69 792.20 385.54 C 791.90 377.36 792.06 369.18 792.12 361.01 Z" />
<path fill="#2d1b12" opacity="1.00" d=" M 792.35 434.08 C 796.44 434.09 800.54 434.06 804.64 434.03 C 804.50 450.31 804.52 466.59 804.62 482.86 C 800.51 483.05 796.41 483.05 792.31 482.87 C 792.36 478.89 792.34 474.92 792.28 470.94 C 792.22 466.90 792.27 462.85 792.33 458.81 C 792.38 450.57 792.33 442.32 792.35 434.08 Z" />
</g>
<g id="#3c1e12ff">
<path fill="#3c1e12" opacity="1.00" d=" M 792.08 288.00 C 796.07 287.98 800.06 288.01 804.06 288.02 C 804.14 293.69 804.16 299.36 804.22 305.03 C 804.13 307.16 804.31 309.44 803.39 311.43 C 800.11 312.46 796.59 312.09 793.21 312.33 C 792.64 320.55 793.30 328.78 793.02 337.01 L 792.01 337.09 L 792.03 336.14 C 792.16 328.17 792.12 320.19 792.03 312.22 C 792.15 304.15 792.19 296.07 792.08 288.00 Z" />
</g>
<g id="#583423ff">
<path fill="#583423" opacity="1.00" d=" M 585.14 336.76 C 593.32 336.69 601.49 336.74 609.67 336.72 C 609.47 352.99 609.47 369.26 609.69 385.52 C 601.52 385.52 593.35 385.52 585.18 385.52 C 585.00 369.27 585.07 353.01 585.14 336.76 Z" />
<path fill="#583423" opacity="1.00" d=" M 694.93 336.73 C 703.00 336.72 711.07 336.73 719.14 336.73 C 719.28 352.99 719.17 369.25 719.19 385.52 C 711.10 385.52 703.00 385.51 694.91 385.52 C 694.91 377.37 694.91 369.23 694.91 361.08 C 694.92 352.96 694.95 344.85 694.93 336.73 Z" />
<path fill="#583423" opacity="1.00" d=" M 585.09 409.85 C 593.29 409.83 601.48 409.85 609.68 409.84 C 609.46 417.96 609.45 426.08 609.71 434.20 C 601.50 434.21 593.29 434.20 585.09 434.21 C 585.08 426.09 585.07 417.97 585.09 409.85 Z" />
</g>
<g id="#392013ff">
<path fill="#392013" opacity="1.00" d=" M 609.67 336.72 C 613.69 336.72 617.71 336.72 621.73 336.73 C 621.66 344.85 621.70 352.97 621.70 361.09 C 621.69 369.23 621.70 377.37 621.69 385.51 C 617.69 385.51 613.69 385.52 609.69 385.52 C 609.47 369.26 609.47 352.99 609.67 336.72 Z" />
<path fill="#392013" opacity="1.00" d=" M 719.14 336.73 C 723.20 336.72 727.27 336.72 731.34 336.73 C 731.36 352.99 731.35 369.25 731.35 385.52 C 727.30 385.51 723.24 385.52 719.19 385.52 C 719.17 369.25 719.28 352.99 719.14 336.73 Z" />
<path fill="#392013" opacity="1.00" d=" M 609.68 409.84 C 613.73 409.84 617.78 409.84 621.83 409.84 C 621.75 413.92 621.72 417.99 621.71 422.07 C 621.68 426.11 621.68 430.15 621.72 434.20 C 617.71 434.20 613.71 434.20 609.71 434.20 C 609.45 426.08 609.46 417.96 609.68 409.84 Z" />
</g>
<g id="#382116ff">
<path fill="#382116" opacity="1.00" d=" M 646.11 336.74 C 654.20 336.86 662.30 336.88 670.40 336.74 C 670.41 344.86 670.41 352.97 670.40 361.09 C 662.30 361.03 654.20 361.05 646.11 361.08 C 646.10 352.97 646.10 344.85 646.11 336.74 Z" />
<path fill="#382116" opacity="1.00" d=" M 646.11 409.85 C 654.21 409.94 662.30 409.87 670.40 409.90 C 670.40 417.96 670.40 426.03 670.40 434.10 C 662.30 434.17 654.20 434.06 646.11 434.19 C 646.11 430.15 646.10 426.11 646.09 422.07 C 646.06 417.99 646.08 413.92 646.11 409.85 Z" />
</g>
<g id="#281e0bff">
<path fill="#281e0b" opacity="1.00" d=" M 768.14 337.21 C 776.09 336.96 784.05 337.22 792.01 337.09 C 792.04 345.06 792.11 353.04 792.12 361.01 C 792.06 369.18 791.90 377.36 792.20 385.54 C 784.13 385.52 776.07 385.50 768.00 385.55 C 768.11 369.44 767.80 353.32 768.14 337.21 Z" />
</g>
<g id="#24140cff">
<path fill="#24140c" opacity="1.00" d=" M 792.01 337.09 L 793.02 337.01 C 796.78 336.83 800.55 336.90 804.33 336.82 L 804.90 336.82 C 804.36 344.86 804.74 352.93 804.63 360.99 C 800.46 361.04 796.28 361.05 792.12 361.01 C 792.11 353.04 792.04 345.06 792.01 337.09 Z" />
<path fill="#24140c" opacity="1.00" d=" M 792.31 410.00 C 796.41 409.94 800.52 409.93 804.64 409.97 C 804.60 417.99 804.60 426.01 804.64 434.03 C 800.54 434.06 796.44 434.09 792.35 434.08 C 792.32 426.05 792.39 418.03 792.31 410.00 Z" />
</g>
<g id="#3a3a3aff">
<path fill="#3a3a3a" opacity="1.00" d=" M 219.34 361.06 C 227.55 361.12 235.75 361.07 243.96 361.09 C 243.93 369.24 243.92 377.38 243.96 385.53 C 235.73 385.59 227.51 385.59 219.28 385.52 C 219.41 377.36 219.32 369.21 219.34 361.06 Z" />
</g>
<g id="#191919ff">
<path fill="#191919" opacity="1.00" d=" M 243.96 361.09 C 260.15 361.08 276.34 361.10 292.54 361.08 C 292.54 369.23 292.51 377.37 292.55 385.52 C 276.36 385.52 260.16 385.50 243.96 385.53 C 243.92 377.38 243.93 369.24 243.96 361.09 Z" />
</g>
<g id="#623a26ff">
<path fill="#623a26" opacity="1.00" d=" M 292.54 361.08 C 300.71 361.08 308.88 361.09 317.05 361.08 C 333.28 361.08 349.51 361.08 365.75 361.08 C 381.96 361.09 398.18 361.08 414.39 361.09 C 414.39 369.23 414.41 377.37 414.38 385.51 C 373.77 385.51 333.16 385.50 292.55 385.52 C 292.51 377.37 292.54 369.23 292.54 361.08 Z" />
</g>
<g id="#d8d8d8ff">
<path fill="#d8d8d8" opacity="1.00" d=" M 585.18 385.52 C 593.35 385.52 601.52 385.52 609.69 385.52 C 613.69 385.52 617.69 385.51 621.69 385.51 C 625.75 385.51 629.81 385.52 633.87 385.52 C 633.80 393.63 633.80 401.74 633.87 409.84 C 629.86 409.84 625.84 409.84 621.83 409.84 C 617.78 409.84 613.73 409.84 609.68 409.84 C 601.48 409.85 593.29 409.83 585.09 409.85 C 585.07 417.97 585.08 426.09 585.09 434.21 C 576.97 434.20 568.85 434.20 560.73 434.21 C 560.73 417.98 560.72 401.75 560.73 385.52 C 568.88 385.51 577.03 385.51 585.18 385.52 Z" />
<path fill="#d8d8d8" opacity="1.00" d=" M 670.40 385.54 C 678.57 385.49 686.74 385.53 694.91 385.52 C 703.00 385.51 711.10 385.52 719.19 385.52 C 719.19 409.95 719.23 434.38 719.17 458.81 C 702.91 458.82 686.66 458.78 670.40 458.83 C 670.39 450.58 670.40 442.34 670.40 434.10 C 670.40 426.03 670.40 417.96 670.40 409.90 C 670.40 401.78 670.40 393.66 670.40 385.54 Z" />
</g>
<g id="#b5b5b5ff">
<path fill="#b5b5b5" opacity="1.00" d=" M 633.87 385.52 C 637.95 385.52 642.03 385.51 646.12 385.56 C 646.11 393.65 646.12 401.75 646.11 409.85 C 642.03 409.84 637.95 409.84 633.87 409.84 C 633.80 401.74 633.80 393.63 633.87 385.52 Z" />
<path fill="#b5b5b5" opacity="1.00" d=" M 719.19 385.52 C 723.24 385.52 727.30 385.51 731.35 385.52 C 731.35 409.95 731.36 434.39 731.35 458.82 C 727.28 458.81 723.23 458.81 719.17 458.81 C 719.23 434.38 719.19 409.95 719.19 385.52 Z" />
</g>
<g id="#4e4e4eff">
<path fill="#4e4e4e" opacity="1.00" d=" M 768.00 385.55 C 776.07 385.50 784.13 385.52 792.20 385.54 C 791.61 393.61 792.28 401.70 791.78 409.78 C 787.92 409.85 784.05 409.93 780.19 410.05 C 779.92 426.05 779.99 442.07 780.17 458.08 C 784.21 458.41 788.27 458.62 792.33 458.81 C 784.22 459.29 776.12 458.62 768.02 458.87 C 767.98 434.43 768.00 409.99 768.00 385.55 Z" />
</g>
<g id="#5f5f5fff">
<path fill="#5f5f5f" opacity="1.00" d=" M 792.20 385.54 C 792.38 393.69 792.16 401.84 792.31 410.00 C 792.39 418.03 792.32 426.05 792.35 434.08 C 792.33 442.32 792.38 450.57 792.33 458.81 C 788.27 458.62 784.21 458.41 780.17 458.08 C 779.99 442.07 779.92 426.05 780.19 410.05 C 784.05 409.93 787.92 409.85 791.78 409.78 C 792.28 401.70 791.61 393.61 792.20 385.54 Z" />
</g>
<g id="#937549ff">
<path fill="#937549" opacity="1.00" d=" M 585.09 434.21 C 593.29 434.20 601.50 434.21 609.71 434.20 C 613.71 434.20 617.71 434.20 621.72 434.20 C 621.76 438.16 621.73 442.12 621.70 446.08 C 609.52 446.79 597.29 446.27 585.10 446.32 C 585.09 442.28 585.09 438.24 585.09 434.21 Z" />
<path fill="#937549" opacity="1.00" d=" M 670.40 458.83 C 686.66 458.78 702.91 458.82 719.17 458.81 C 723.23 458.81 727.28 458.81 731.35 458.82 C 731.35 462.86 731.35 466.90 731.35 470.94 C 711.03 470.87 690.72 470.93 670.40 470.91 C 670.40 466.88 670.40 462.85 670.40 458.83 Z" />
</g>
<g id="#6b6b6bff">
<path fill="#6b6b6b" opacity="1.00" d=" M 292.58 458.82 C 313.01 458.81 333.44 458.82 353.87 458.82 C 353.53 466.85 354.26 474.91 353.36 482.92 C 333.18 482.94 313.00 482.92 292.82 482.93 C 292.54 474.90 292.81 466.86 292.58 458.82 Z" />
</g>
<g id="#616161ff">
<path fill="#616161" opacity="1.00" d=" M 353.87 458.82 C 374.04 458.82 394.21 458.80 414.38 458.83 C 414.39 466.86 414.42 474.89 414.37 482.92 C 394.03 482.95 373.70 482.94 353.36 482.92 C 354.26 474.91 353.53 466.85 353.87 458.82 Z" />
</g>
<g id="#42321aff">
<path fill="#42321a" opacity="1.00" d=" M 768.02 458.87 C 776.12 458.62 784.22 459.29 792.33 458.81 C 792.27 462.85 792.22 466.90 792.28 470.94 C 784.20 470.97 776.13 470.98 768.06 470.97 C 768.02 466.93 767.99 462.90 768.02 458.87 Z" />
</g>
</svg>
