<?xml version="1.0" encoding="UTF-8" ?>
<!DOCTYPE svg PUBLIC "-//W3C//DTD SVG 1.1//EN" "http://www.w3.org/Graphics/SVG/1.1/DTD/svg11.dtd">
<svg width="130pt" height="130pt" viewBox="0 0 130 130" version="1.1" xmlns="http://www.w3.org/2000/svg">
<g id="#ffffffff">
<path fill="#ffffff" opacity="1.00" d=" M 40.00 0.00 L 70.00 0.00 C 70.00 3.33 70.00 6.67 70.00 10.00 C 60.00 10.00 50.00 10.00 40.00 10.00 C 40.00 6.67 40.00 3.33 40.00 0.00 Z" />
<path fill="#ffffff" opacity="1.00" d=" M 0.00 20.00 C 36.67 20.00 73.33 20.00 110.00 20.00 C 110.00 23.33 110.00 26.67 110.00 30.00 C 73.33 30.00 36.67 30.00 0.00 30.00 L 0.00 20.00 Z" />
<path fill="#ffffff" opacity="1.00" d=" M 10.00 40.00 C 40.00 40.00 70.00 40.00 100.00 40.00 C 100.00 70.00 100.00 100.00 100.00 130.00 L 10.00 130.00 C 10.00 100.00 10.00 70.00 10.00 40.00 M 30.00 60.00 C 30.00 76.67 30.00 93.33 30.00 110.00 C 33.33 110.00 36.67 110.00 40.00 110.00 C 40.00 93.33 40.00 76.67 40.00 60.00 C 36.67 60.00 33.33 60.00 30.00 60.00 M 50.00 60.00 C 50.00 76.67 50.00 93.33 50.00 110.00 C 53.33 110.00 56.67 110.00 60.00 110.00 C 60.00 93.33 60.00 76.67 60.00 60.00 C 56.67 60.00 53.33 60.00 50.00 60.00 M 70.00 60.00 C 70.00 76.67 70.00 93.33 70.00 110.00 C 73.33 110.00 76.67 110.00 80.00 110.00 C 80.00 93.33 80.00 76.67 80.00 60.00 C 76.67 60.00 73.33 60.00 70.00 60.00 Z" />
</g>
</svg>
